/* XPM */
static char *_f92b364358048d68af5c4727c000324ZxJOPXAqOw9a68xB[] = {
/* columns rows colors chars-per-pixel */
"32 32 4 1 ",
"  c None",
". c #089C39",
"X c #00C529",
"o c #73DE00",
/* pixels */
"..ooooX....ooo.......XX.ooooo.. ",
"...ooooX....ooo.......XX.ooooo..",
"..oXXo......XXo.......X...oXXXo.",
".oXXo..ooo...Xo..oooX......oXXXo",
".X.XX..oXX......ooXXXX..XX..X.XX",
"...X...oX..X.......oXX...X..X..X",
"...........XX.XX................",
"..oooo...oX....X..XXX.XX..XXX...",
"XXXXo..X.oXX.....XXX..X..oXX....",
"..Xo..XX.ooo.XX..XX.....oXXXXX..",
"XXX..XX......XXX.......ooooX...X",
"o........XX...XX.XXXX..........X",
"Xo..XX....X......XX..........XX.",
"Xo..X..oo.....XX.......XX.XX..X.",
"XXo...oXo..XX..X....ooXXX..X....",
"X.X..XXo...X.......oXooXX.......",
"X.X.XXX......XX.X.ooo.......ooX.",
"...XX.X...XX.X..X....XX.....oXX.",
".X..X.X....X....X....X...X..XX..",
"XX......................XX......",
"...XXooo..XX..XXX...XXX.XX.X....",
".XX.XXooo..X.XXX..X..XXX..XX..XX",
"...Xo....XX..XX...XX..XX.XX...oX",
".........XXX.............XX...oo",
"XX.XX.XX..XX.XXXX...XX......XX..",
".X.X...X.....XX.....X........X..",
"....XX....X...........XX......XX",
".XX.X....XX........XX.X..X...XXX",
"..X..XXX.XX.X.oooo.X......X..XX.",
"......XXX..XX..oXo...ooo..XX....",
"ooo....XX.XX....oXo.oXXoo.XX.XXX",
"XXo.......XX....oXX.oXX......XX."
};
