/* XPM */
static char *e2885946004e44c5859b0c4186789cb11SDF5zJ4Rv3C1q8O[] = {
/* columns rows colors chars-per-pixel */
"32 32 175 2 ",
"   c None",
".  c #39720E",
"X  c #1C6F25",
"o  c #0D762A",
"O  c #08792A",
"+  c #1B7221",
"@  c #507B1F",
"#  c #71751F",
"$  c #456F27",
"%  c #577420",
"&  c #5E7A20",
"*  c #6C752E",
"=  c #807910",
"-  c #0B871B",
";  c #04991E",
":  c #25841E",
">  c #068931",
",  c #079737",
"<  c #0B9937",
"1  c #089C39",
"2  c #1C9A35",
"3  c #139B37",
"4  c #248124",
"5  c #3C8729",
"6  c #249A33",
"7  c #289A31",
"8  c #259433",
"9  c #3C9C30",
"0  c #00A320",
"q  c #04AE22",
"w  c #00B525",
"e  c #04BD26",
"r  c #19BF23",
"t  c #2DA62D",
"y  c #23BD22",
"u  c #39BB20",
"i  c #548024",
"p  c #579528",
"a  c #569F32",
"s  c #4AA524",
"d  c #63A437",
"f  c #7BA83A",
"g  c #00C529",
"h  c #1DC127",
"j  c #70D000",
"k  c #7FD700",
"l  c #73DE00",
"z  c #74C13A",
"x  c #918C0F",
"c  c #94821D",
"v  c #A58819",
"b  c #B78D18",
"n  c #B1911E",
"m  c #8C9633",
"M  c #B79A2A",
"N  c #95A026",
"B  c #8EA839",
"V  c #A9A02C",
"C  c #D3A616",
"Z  c #EDAF0E",
"A  c #E1AE0E",
"S  c #F2B40D",
"D  c #E3AE10",
"F  c #EAAF12",
"G  c #E4B215",
"H  c #EDB113",
"J  c #E5B118",
"K  c #EDB61D",
"L  c #E7B818",
"P  c #ECBC1E",
"I  c #F1B613",
"U  c #F3BB16",
"Y  c #F2BB1A",
"T  c #F0B51F",
"R  c #D3AF3F",
"E  c #DDAA3B",
"W  c #D9AA31",
"Q  c #E0A62C",
"!  c #E6B922",
"~  c #EBBD21",
"^  c #EBBC2B",
"/  c #E6B528",
"(  c #F3BE25",
")  c #F4BF2F",
"_  c #E0A630",
"`  c #E5AD36",
"'  c #EFBB30",
"]  c #EBBB3E",
"[  c #EBB63D",
"{  c #F0BE3B",
"}  c #8ED203",
"|  c #82C213",
" . c #F4C11B",
".. c #EECA2C",
"X. c #E9C225",
"o. c #F4C825",
"O. c #F3C42A",
"+. c #F2C82D",
"@. c #F5C422",
"#. c #F2D02F",
"$. c #F8C735",
"%. c #F4CD33",
"&. c #F1C13C",
"*. c #F7CE3F",
"=. c #F5C135",
"-. c #F5D436",
";. c #F6D73E",
":. c #9A9448",
">. c #9BB048",
",. c #A6AF44",
"<. c #B7AE4F",
"1. c #A4B24B",
"2. c #B5B54E",
"3. c #C9BD5E",
"4. c #D4B35C",
"5. c #E8BA44",
"6. c #EABE55",
"7. c #E6BC5A",
"8. c #E8BF58",
"9. c #E5B551",
"0. c #DBBF6A",
"q. c #BAC04E",
"w. c #D5CB55",
"e. c #EBC143",
"r. c #F4C545",
"t. c #F3C64A",
"y. c #F6CA4E",
"u. c #F8CB4B",
"i. c #FAD34B",
"p. c #E7C15D",
"a. c #EBC25B",
"s. c #E9C153",
"d. c #F4C853",
"f. c #FDD454",
"g. c #FFD659",
"h. c #FED95C",
"j. c #F8DA51",
"k. c #CDC660",
"l. c #C8C864",
"z. c #DAC265",
"x. c #D5C868",
"c. c #EDC467",
"v. c #E7CF6E",
"b. c #EEC96E",
"n. c #E8C866",
"m. c #F0C96F",
"M. c #F3CB66",
"N. c #F7D267",
"B. c #FDD964",
"V. c #FFDC6B",
"C. c #ECCF7D",
"Z. c #F3CE72",
"A. c #F5D275",
"S. c #F6D47D",
"D. c #F8D678",
"F. c #FEE177",
"G. c #FCE179",
"H. c #E9D188",
"J. c #F7D684",
"K. c #F8D984",
"L. c #F7D98B",
"P. c #F9DB8A",
"I. c #F6DA94",
"U. c #FBDD93",
"Y. c #F9DF9B",
"T. c #F2D99A",
"R. c #FFE480",
"E. c #FFE08D",
"W. c #FDE198",
"Q. c #FDE5A6",
"!. c #F9E3AC",
"~. c #FAE5B4",
"^. c #FEE9B5",
"/. c #FEEBBB",
"(. c #FDECC3",
/* pixels */
"1 1 l l l l g 1 1 1 1 l l l 1 1 1 1 1 1 1 g g 1 l l l l l 1 1   ",
"1 1 1 l l l l g 1 1 1 1 l l l 1 1 1 1 1 1 1 g g 1 l l l l l 1 1 ",
"1 1 l g g l 1 1 1 1 1 1 g g l 1 1 1 1 1 1 1 g 1 1 1 l g g g l 1 ",
"1 l g g l 1 1 l l l 1 1 1 g l 1 1 l l l g 1 1 1 1 1 1 l g g g l ",
"1 g 1 g g 1 1 l g g 1 1 1 1 1 1 l l g g g g 1 1 g g 1 1 g 1 g g ",
"1 1 1 g 1 1 1 l g 1 1 g 1 1 2 7 7 6 < l g g 1 1 1 g 1 1 g 1 1 g ",
"1 1 1 1 1 1 1 1 1 1 1 g u B 2.z.z.k.1.d 2 1 1 1 1 1 1 1 1 1 1 1 ",
"1 1 l l l l 1 1 1 l y ,.H.^./.~.~.!.Q.I.l.d g g 1 1 g g g 1 1 1 ",
"g g g g l 1 1 g 1 } k.^.(.!.I.L.K.J.S.K.U.C.z < 1 l g g 1 1 1 1 ",
"1 1 g l 1 1 g g 9 v.(.~.U.L.J.m.m.Z.D.A.A.m.c.f l g g g g g 1 1 ",
"g g g 1 1 g g 3 2./.!.L.K.c.E Q ` ` a.A.r.K H ! } l l g 1 1 1 g ",
"l 1 1 1 1 1 1 a T./.I.L.7.Q t.g.g.f.y.O.S S Z S N 1 1 1 1 1 1 g ",
"g l 1 1 g g 1 >./.W.L.P.c.u.h.g.g.g.g.$.I I I Z C 8 1 1 1 g g 1 ",
"g l 1 1 g 1 2 w.^.L.P.P.b.[ h.g.g.g.g.i.U U I H H 5 g g 1 1 g 1 ",
"g g l 1 1 1 k x.Q.L.K.P.9.] h.g.g.g.B.g. .Y U H I % 1 g 1 1 1 1 ",
"g 1 g 1 1 g h v.W.L.K.K.6.f.g.g.g.g.V.f. . .K H L & 1 1 1 1 1 1 ",
"g 1 g 1 g g r 0.U.K.K.K.S.d.f.g.g.g.B.%.o.o.Y H U % , 1 l l g 1 ",
"1 1 1 g g 1 e <.U.K.K.S.N.t.B.g.g.g.f.{ +.o. .C ' $ 1 1 l g g 1 ",
"1 g 1 1 g 1 e m E.d.r.=.O.O.;.u.h.B.D.F.i.o.L J W : 1 1 g g 1 1 ",
"g g 1 1 1 1 1 p a.{ I ( ( O.K 5.G.F.h.;.+.X.D { c ; 1 1 1 1 1 1 ",
"1 1 1 g g l l j M M.! ( O.O.&.N.j.;.-.#.X.A ' E . w 1 g 1 1 1 1 ",
"1 g g 1 g g l l | z./ ^ P ~ +.+.+...X.G A s.c.# O 1 g g 1 1 g g ",
"1 1 1 g l 1 1 1 1 s 5.b.a.e.^ ~ P ! / 5.v.n.:.- 1 g g 1 1 1 l g ",
"1 1 1 1 1 1 1 1 1 e t V W 8.p.a.p.p.p.p.4.* o , 1 g g 1 1 1 l l ",
"g g 1 g g 1 g g 1 1 g q @ x n b M b v # 4 0 1 1 1 1 1 1 g g 1 1 ",
"1 g 1 g 1 1 1 g 1 1 1 1 1 w ; X X X o > g 1 1 1 1 1 1 1 1 g 1 1 ",
"1 1 1 1 g g 1 1 1 1 g 1 1 1 1 1 , 1 1 1 1 1 g g 1 1 1 1 1 1 g g ",
"1 g g 1 g 1 1 1 1 g g 1 1 1 1 1 1 1 1 g g 1 g 1 1 g 1 1 1 g g g ",
"1 1 g 1 1 g g g 1 g g 1 g 1 l l l l 1 g 1 1 1 1 1 1 g 1 1 g g 1 ",
"1 1 1 1 1 1 g g g 1 1 g g 1 1 l g l 1 1 1 l l l 1 1 g g 1 1 1 1 ",
"l l l 1 1 1 1 g g 1 g g 1 1 1 1 l g l 1 l g g l l 1 g g 1 g g g ",
"g g l 1 1 1 1 1 1 1 g g 1 1 1 1 l g g 1 l g g 1 1 1 1 1 1 g g 1 "
};
