/* XPM */
static char *_2063ad3ee1246068fab75105bab1e7dWuywFPaKlK5i2flU[] = {
/* columns rows colors chars-per-pixel */
"64 64 106 2 ",
"   c #CCC8C7",
".  c #CDC9C8",
"X  c #CECAC9",
"o  c #CFCBCA",
"O  c #CDCDCB",
"+  c #CECECC",
"@  c #CFCFCD",
"#  c #D0D0CE",
"$  c #D1D1CF",
"%  c #D3D3D1",
"&  c #D7D3D2",
"*  c #D4D4D2",
"=  c #D5D5D3",
"-  c #D6D6D4",
";  c #D7D6D4",
":  c #D7D7D5",
">  c #D8D4D3",
",  c #D9D5D4",
"<  c #D8D7D5",
"1  c #DBD7D6",
"2  c #D8D8D6",
"3  c #D9D9D7",
"4  c #D8DAD7",
"5  c #DCD8D7",
"6  c #D9DBD8",
"7  c #DADAD8",
"8  c #DBDAD8",
"9  c #DBDBD9",
"0  c #DDD9D8",
"q  c #DFD9D9",
"w  c #DEDAD9",
"e  c #DFDBDA",
"r  c #DBDDDA",
"t  c #DCDCDA",
"y  c #DDDDDB",
"u  c #DEDDDB",
"i  c #DCDEDB",
"p  c #DDDFDC",
"a  c #DEDEDC",
"s  c #DFDEDC",
"d  c #DFDFDD",
"f  c #E0DADA",
"g  c #E0DCDB",
"h  c #E1DDDC",
"j  c #E3DDDD",
"k  c #E2DEDD",
"l  c #E3DFDE",
"z  c #E6DDDE",
"x  c #E4DEDE",
"c  c #E5DFDF",
"v  c #E7DEDF",
"b  c #DEE0DD",
"n  c #DFE1DE",
"m  c #E0E0DE",
"M  c #E1E0DE",
"N  c #E1E1DF",
"B  c #E2E1DF",
"V  c #E0E2DF",
"C  c #E4E0DF",
"Z  c #E2E2E0",
"A  c #E3E2E0",
"S  c #E3E3E1",
"D  c #E5E1E0",
"F  c #E4E3E1",
"G  c #E6E2E1",
"H  c #E7E3E2",
"J  c #E2E4E1",
"K  c #E3E5E2",
"L  c #E4E4E2",
"P  c #E5E4E2",
"I  c #E5E5E3",
"U  c #E6E5E3",
"Y  c #E4E6E3",
"T  c #E6E6E4",
"R  c #E7E6E4",
"E  c #E7E7E5",
"W  c #E9E0E1",
"Q  c #EAE1E2",
"!  c #E8E2E2",
"~  c #E8E4E3",
"^  c #E9E5E4",
"/  c #EBE5E5",
"(  c #E8E7E5",
")  c #EAE6E5",
"_  c #EBE7E6",
"`  c #ECE6E6",
"'  c #E6E8E5",
"]  c #E8E8E6",
"[  c #E9E8E6",
"{  c #E9E9E7",
"}  c #EAE9E7",
"|  c #ECE8E7",
" . c #EAEAE8",
".. c #EBEAE8",
"X. c #EBEBE9",
"o. c #EDE9E8",
"O. c #ECEBE9",
"+. c #EEEAE9",
"@. c #ECECEA",
"#. c #EDECEA",
"$. c #EDEDEB",
"%. c #EEEEEC",
"&. c #EFEFED",
"*. c #F0F0EE",
"=. c #F1F1EF",
"-. c #F2F2F0",
/* pixels */
"* * - - 2 2 2 2 m m a a a a a a S S m S m S S S m m S S S L L L T { T T T T L T S L L L L L L L { { X.{ X.X.X.@.{ { T { L L L L ",
"L L L T T { X.{ T { { T { L T T @.@.&.@.&.@.@.@.=.=.=.=.=.-.-.-.&.&.=.@.&.@.&.@.=.&.=.&.&.=.&.=.{ { { X.{ X.X.X.=.&.=.@.&.X.@.@.",
"S S L L L T T { @.X.{ X.{ X.{ T T { T { T T { { X.X.{ X.@.@.@.@.{ X.{ { T { T T T { T T T T T T { { { { { X.X.X.{ { { X.{ T T T ",
"9 y y a m m m m T T L T L L L L m m m a m m a m m m m S m S S S L T L T T L L L 9 y y y y y y y T { { { X.{ X.{ T { T L S S S S ",
"L T T T { { X.{ L L L S L S S S X.X.X.X.X.@.X.X.{ { X.{ X.X.X.X.@.&.&.@.@.@.@.@.L L L L L L L L { { { T X.{ { X.=.&.=.@.@.X.X.X.",
"T { { { X.X.@.@.X.{ X.{ { T { T @.&.@.&.@.@.@.&.@.@.@.@.&.@.&.@.@.X.X.X.X.{ { { { { { { { { { { T T { T T { { { X.X.X.X.X.{ T { ",
"m m m m m S L L L T L T L S S S a m m a m m a m T T T T T T { { L T L L L S S S T T T L T T T T { T T { { X.{ { T T T T S S S S ",
"a m m S S S L L y y y 9 y 9 9 9 9 9 y 9 9 y 9 9 T { { { X.{ X.{ &.@.@.@.@.X.X.X.{ X.X.X.{ X.{ X.L { { T { T { { &.&.@.@.X.X.{ { ",
"T T T { T { T { X.{ X.{ X.{ X.{ { X.{ X.{ X.{ X.X.&.@.@.@.&.&.&.X.X.X.X.@.X.X.X.X.X.X.X.X.X.X.X.@.&.&.&.&.&.&.=.{ { { { T T { T ",
"S S S L L L T L S S S S S S S S S S S S S S S S T T T { { { T { X.@.@.@.@.@.@.@.L T T L T L L T L L L L L { T T X.{ { X.X.{ T { ",
"m m m m S m S S S S S S S S S S S S S S S S S S L T L T L { { T T L L T T L L L L S L L S L L S S S S S L L L L L S L S S S S S ",
"T L T T L { T T { { { { { { { { { { { X.{ { { { { X.X.X.@.X.@.@.T T { T T T { { X.X.{ X.X.{ X.X.T L T { T { { T T { T T L T L L ",
"a a m m m S m S { { { { { { { T { T { T { T { T { X.{ X.X.X.X.@.&.&.&.@.&.&.&.@.{ { { { { { { { T L { T { T { { &.&.@.&.&.@.@.@.",
"X.X.X.X.X.@.@.@.m m m m m m m S m S m S m S m S S m m S S L L L L S L L L S L L S S S S S S S L S S S S S S L L L T L L S S S S ",
"O O O @ @ @ @ # m S S m m m m S m m S m S m m m S m S S L S S S y y y y y y y y m m S S S S m m L L L T L { { T a a a a y y 9 y ",
"{ { { { { X.X.@.T T T T { { T T { T T T { T { T T T { T T { { { X.X.X.X.X.X.X.X.{ { { T T { { { &.&.@.&.&.&.&.=.@.@.@.X.X.{ X.{ ",
"{ { X.{ X.@.X.@.@.@.@.@.@.@.@.@.L S S L L T L T T { T { T X.X.{ &.@.&.@.@.@.X.X.&.@.@.&.&.@.@.&.X.@.@.X.X.{ X.{ { { { { { { { { ",
"y y a a a a m a m a a m m a a m S S S L L L T L m a m m m m m S m m a m a a y y y a a a y a a a a a a a y y 9 y 9 9 9 9 9 9 9 9 ",
"S S S L L L L T L T T L L L T L S S S L L T L T L T T L T T T T T L T L L L S S m S m m m S m m L L L S S S m S m m S m m m m S ",
"{ { { { X.X.X.X.X.X.X.@.@.X.X.X.S S S L L L T L { T X.{ X.X.X.X.&.=.@.&.&.@.&.@.{ { { { { { { { &.@.&.@.@.@.@.X.@.X.X.X.@.X.X.X.",
"y y y y y a a a a a m a m a m a S S S L L T L T a m m S m S S S T T T T T L L L m m S m S m m S L T T L L L S S S S S L S S S S ",
"2 2 9 9 9 9 y y y 9 y 9 y 9 y 9 S S S L L L T L S S L L T L L L L S S L m S S m m m m m m a m m m S m S m m m m m S m m m S m m ",
"T L T T { T T { { { T { T { { { S S S L L T L T X.{ { X.X.X.X.X.{ X.{ { T { { T { X.X.{ { X.X.{ { T { T { T T T T { { T { T { T ",
"X.X.{ X.X.@.@.@.@.@.@.@.@.@.@.@.S S S L L L T L m m S m S S L S T T { T { T L T X.X.X.X.X.X.X.X.T { T T L L T L T L T T L T T T ",
"y y y y y y y y t 9 - - - 9 y a y y a a a m a m m m S m m m S S S m a m m m a a 9 2 9 9 2 9 9 9 a a a y y 9 9 y a a a y y y 9 y ",
"S S S S S S S S F S m a a m S T S L L L L T T T { T { T { T T T { T { T T L L T L L L L L L L L L L L L S S S S T L L L S S S m ",
"S S S S S S S S S S m a a S L T L L L L L T T T T { T T { T { T T T T T T T T L { T T { T { T T T L L L S S S m L L L L S S S m ",
"y y y y y y y y @.{ { T T { @.&.a a a m m m m m m m m m m m a m m S m m a a m a a m a a m a a m a a y y y y 9 y a a a a y 9 y y ",
"y y y y y y y y % # @ O @ @ % * m a m m m m m S a m a m a m a m S m m m m m a a 9 9 9 9 9 9 9 9 a a a a y y 9 y a a a y y y 9 y ",
"S S S S S S S S T T L m S L ( { T T T L T { { T T L T L T L T L T T { T T L L T m m m m m m m m L L L L S S S m L L L L S S S m ",
"S S S F S F S F { L F m m K { X.T T T { T { { { L T L T L T L T T { { L T T T L S S S S S S L S L L L L S S S m T L L L S S S m ",
"y y y y y y y y m S a y a k S L m m m m S m m S a a a a a a a a m m m m a a m a m m m m m m m m a a a y y 9 y y a a a y y 9 y y ",
"| C | C | | | o.C B C B C C C C S S L L S S L L m m m b m b m m a a y y 9 y y 9 L L L S S S S m m a a a y y y y y 9 y 9 y y y 9 ",
"M j M M M M M C +.+.+.+.o.+.@.o.{ { { { { { { { X.{ X.X.X.} X.} { X.{ X.{ T T T L T L L S S S S { { T { { T L T T T T T L T T T ",
"| | | +.| +.+.+.C C B C C C B C y y y y y y y y m m m m m m m m S S S m S m S m { T T { T T T T m m m a a a y y y y y y y a y y ",
"  . . . X . o o f g g 8 8 g 5 8 < * - - - * - - 2 2 2 2 2 2 2 2 y 9 y 9 9 9 2 9 2 - 2 * - * - * - - 2 - - - * * * - * - * * - * ",
"C C C C C C ~ C ~ ~ / ~ / ~ ~ ( ~ { L L T T T T K L L S L V L C { T T T T T L T S S m S S m S a L S m S S m m S m S S m S S m m ",
"C | | | / | | | | +.o.o.+.+.+.| @.@.@.@.@.@.@.@.L T T L ( Y L { { { X.{ { T { T =.=.=.&.&.&.@.&.{ T { L T L T L L L L L L L L T ",
"f g g g j g g j C B B B B C B C m m m m m m m m y y y y y y y y y 9 y 9 9 9 2 9 9 2 9 2 2 2 2 2 y a a y a y 9 9 y y 9 y y 9 y y ",
"j j M M C C B C j g j j g g M M 5 y 2 y 2 y 2 9 2 y 2 9 5 6 6 6 2 - 2 - - - - * m m m m m a a a 9 9 9 9 9 2 2 9 2 2 9 2 2 9 2 2 ",
"/ | ` | | C ` ` +.+.+.+.+.+.+.o.{ { { { { { { { ..( ..} } } o.} X.{ { { X.{ { { T T T T T T T T S S S L S S S S T L T L T L T L ",
"M M C C M C C C C ~ C C ~ C C L L m m K L m m L ( B V Y Y ..Y ( m S m S m S m S m m m m m m m m L L L L L L L L a a a a a a a a ",
"M C C C C M C C C C C C C C C C B m C m L m L m 4 8 8 b b y b M S m S m S m S m a m a m a m a m a a a a a a y a a a a a a a a a ",
"C ` C ` C | ` C | +.+.| +.+.+.| { ( { ' { L { { M b M V b m m m L T T T T T L T T L T L T L T L S m m m S m S m L L L L L L L L ",
"` C ` C ` C ` | | | / | ` | ` { { ~ { { L { { L ......#.%.&.#.#.T L L T L T L T L L L L L L L L T { { T { { T { S S S S L S S S ",
"M C C C M C C M C C B C B x B B m m b m m m m m V C V V B B B B a a a a a a a a a a a a a a a a m a a m a m m a 9 y 9 y y 9 9 y ",
"h h C M h M h h B C B B B v B B m m m m m m m m 4 4 ; b b 4 b < a y y y y y y y y y y y y y y y 2 2 2 2 2 2 2 2 y 9 y 9 9 y y 9 ",
"` C C ` C ` C C / / / ( / / ` ( ( L ~ L { L { L C V V B B C B C F S F S F S F S F S F S F S F S T T T T T T T T m S S m S S m S ",
"C C C C C C C C C C C o.C C o.o.C C C C C C C C C C C V C C C M C C C ~ ( C ~ C ~ C C C C ( C ( L K K K L K K K ' Y V b b b K K ",
"h h h h f C M f 5 M f , C f f f C C C M M C C C C M M M M C M M g g g g g 5 g g > > ; > , , , ; 9 9 6 2 6 2 6 6 V b y 2 4 6 b b ",
"o.C C C C o.o.C C C C C C C C C C C C C C C C C C o.C C C +.+.C C C C C B C C C ( | | | o.| | } S S K K L L B L ' L V y m m V L ",
"o.` o.+.` o.o.C C o.o.o.| | +.o.o.C | C C | | C +.C o.o.+.C +.C +.*.+.+.+.+.+.+.C B C ( C ~ ~ ~ X.X.X.X.{ @.@.@.{ L L m b m L L ",
"g f f f 8 f f 8 C C C C C C C C C C M f f f M C C f f 5 f f f f M M j h g g g M ~ C ~ / C | ~ ( y a k y b y y y y 2 ; * * - 2 2 ",
"g g C C f M M C C C C C C C C C C C C C C C C C f M M C M f C C f , , f g g g , > > > > > > , , 5 9 6 5 2 9 y 2 m y 6 2 * 2 y y ",
"C ` | C C C o.| C C | C C | | C C C | C C C C | C C o.o.C C C +.C C C C C C C C | | / ( | | | | L L L L L L F L @.| ( L L L { { ",
"C C C C C C C C C C C C | | C o.C C C C C C C C C C C C C C C C | | C | | C | / C C ~ C ~ ~ ~ / L L ~ L L ( L ~ | { ~ B B L ~ ( ",
"5 M 5 f 5 f f f C M M f 1 f 8 5 M f f C M f C C , f f g f g f C g , h f f g f , 5 5 5 5 5 5 f 5 5 g 5 f 5 f 5 f 5 5 5 5 f 5 f 5 ",
"C C C C C C C C C C C C C C C C C C C C C C C C M M M C C C C C | C C C C C | C ~ C C ~ ~ C C C ~ ~ ~ ~ ~ ~ ~ ~ ~ ~ L ~ ~ C ~ ~ ",
"C ` C C C | C C C C o.C C C C o.C C C C C C C C C C C | C | | C | / / / | | | C ~ ~ ~ ~ / ~ ~ / | ` ` ` | ` ` ` ~ / / / / / / / ",
"M M M f M C M f C C C C C C C C f f M g C C C C C C C C C C | C M M M M M M C C j M j j M j M M x x x x x x x x x x j j j j j j ",
", 5 , 5 > , 1 5 f 5 M M C f f f C f f C M C C C C C C C C C C C h h h M h h h h f f f f 5 f f f f f f f f f f f f f f f f f 5 f ",
"f f M f M 5 M 5 C C C C C C C C C C C C C C C C ` C ` +.` +.+.` C C C C C C C C C B B B B x B B B v v C v v B v j j j v j x x x ",
"M M M f M f C C C C C | C C C C C C C C C ` C C C C C C C C C | C ` C ` C | C C ~ ~ Q / ~ ~ ~ ~ Q Q Q Q Q Q Q Q v v v Q C v C Q ",
"q M q q M f f C C C | C C C C C f g h g C C h C h g h C h h M C C C | C C C | C C C B C C B C B v v v v v v v v v v v v v z v v "
};
