/* XPM */
static char *_e33d23cdaeb4600ae793333d6c0a536y3JYyBjUG48wAgbw[] = {
/* columns rows colors chars-per-pixel */
"32 32 112 2 ",
"   c None",
".  c #2D473F",
"X  c #2C493F",
"o  c #294C3F",
"O  c #294D3F",
"+  c #2B4C3E",
"@  c #374D3B",
"#  c #364F3A",
"$  c #27563F",
"%  c #28533E",
"&  c #26583C",
"*  c #25583F",
"=  c #255B3E",
"-  c #245B3F",
";  c #235E3F",
":  c #245D3D",
">  c #3C5A37",
",  c #3B5938",
"<  c #1F683D",
"1  c #177D37",
"2  c #1A7937",
"3  c #1B7538",
"4  c #1C7439",
"5  c #1B713D",
"6  c #1A743D",
"7  c #1B753D",
"8  c #167E3C",
"9  c #18793C",
"0  c #19793D",
"q  c #21653B",
"w  c #22603F",
"e  c #21633E",
"r  c #22623E",
"t  c #22633F",
"y  c #20673D",
"u  c #21643F",
"i  c #3E6035",
"p  c #2E3D42",
"a  c #2E3E42",
"s  c #303C42",
"d  c #303D42",
"f  c #2D4240",
"g  c #2F4142",
"h  c #2E4342",
"j  c #2C4440",
"k  c #2D4540",
"l  c #2E4440",
"z  c #2E4441",
"x  c #2D4640",
"c  c #2C4740",
"v  c #2A4840",
"b  c #2B4940",
"n  c #2A4A41",
"m  c #2A4B41",
"M  c #2B4C40",
"N  c #2B4C41",
"B  c #2A4D41",
"V  c #294F40",
"C  c #314340",
"Z  c #265440",
"A  c #275540",
"S  c #285140",
"D  c #265840",
"F  c #0F8D3A",
"G  c #0F8C3B",
"H  c #0F8D3B",
"J  c #0E8F3A",
"K  c #0F8E3B",
"L  c #168136",
"P  c #118C34",
"I  c #118D34",
"U  c #15803B",
"Y  c #14823B",
"T  c #13863B",
"R  c #12873B",
"E  c #14843B",
"W  c #15803C",
"Q  c #118A3B",
"!  c #108C3B",
"~  c #099E30",
"^  c #089F30",
"/  c #0E913A",
"(  c #0B9639",
")  c #0B973A",
"_  c #0C9539",
"`  c #0C953A",
"'  c #0A9839",
"]  c #0A9939",
"[  c #099B39",
"{  c #089C39",
"}  c #109033",
"|  c #05A62F",
" . c #02B52C",
".. c #01B92B",
"X. c #01BB2B",
"o. c #00BF2A",
"O. c #07A230",
"+. c #06A430",
"@. c #05A730",
"#. c #52911F",
"$. c #59A018",
"%. c #66BE08",
"&. c #508B21",
"*. c #00C329",
"=. c #00C22A",
"-. c #00C429",
";. c #00C529",
":. c #00C42A",
">. c #67C406",
",. c #6CCE02",
"<. c #73DC00",
"1. c #73DE00",
/* pixels */
"{ { 1.1.1.1.;.{ { { { 1.1.1.{ { { { { { { ;.;.{ 1.1.1.1.1.{ {   ",
"{ { { 1.1.1.1.;.{ { { { 1.1.1.{ { { { { { { ;.;.{ 1.1.1.1.1.{ { ",
"{ { 1.;.;.1.{ { { { { { ;.;.1.{ { { { { { { ;.{ { { 1.;.;.;.1.{ ",
"{ 1.;.;.1.{ { 1.1.1.{ { { ;.1.{ { 1.1.1.;.{ { { { { { 1.;.;.;.1.",
"{ ;.{ ;.;.{ { 1.:.:.{ { E t N h C > 4 +.;.;.{ { ;.;.{ { ;.{ ;.;.",
"{ { { ;.{ { { 1.:.{ / ; B 7 K ) ] ! 7 > q  .{ { { ;.{ { ;.{ { ;.",
"{ { { { { { { { { R z } :.{ :.:.{ { { { 5 c ! { { { { { { { { { ",
"{ { 1.1.1.1.{ { K @ +.{ { { { :.{ { ;.;.;.8 B X.{ { ;.;.;.{ { { ",
";.;.;.;.1.{ { ;.Z #.;.;.{ { { { { ;.;.;.{ { L w { 1.;.;.{ { { { ",
"{ { ;.1.{ { ;.O.O 1.1.1.O.:.:.{ { ;.;.{ { { ] j >.;.;.;.;.;.{ { ",
";.;.;.{ { ;.;.e 7 [ O.O.{ :.:.:.{ { { { { { { #.&.1.1.;.{ { { ;.",
"1.{ { { { { { B K :.:.[ t u :.:.{ ;.3 3 ;.{ { R S { { { { { { ;.",
";.1.{ { ;.;.{ g ) { :.O.h h O.{ { ;.j C { { { ` j { { { { ;.;.{ ",
";.1.{ { ;.{ { s 1.{ { { C h :.:.{ { C j { { { ;.s { ;.;.{ { ;.{ ",
";.;.1.{ { { 1.s 1.{ { :.7 u { :.{ { q u 1.1.;.;.s { { ;.{ { { { ",
";.{ ;.{ { ;.;.s { { { :.{ { { { { { { 1.;.1.1.;.s { { { { { { { ",
";.{ ;.{ ;.;.;.s { { { { { ;.;.{ ;.{ 1.1.1.{ { { d { { { 1.1.;.{ ",
"{ { { ;.;.{ ;.s { { ;.;.{ ;.{ { ;.{ { { { ;.;.{ d { { { 1.;.;.{ ",
"{ ;.{ { ;.{ =.a { { { ;.{ { { { ;.{ { { { ;.{ { a :.] { ;.;.{ { ",
";.;.{ { { { ] g { { { { { { { { { { { { { { { { j o.{ { { { { { ",
"{ { { ;.;.1.,.# { { ;.;.{ { ;.;.;.{ { { ;.;.;.{ n X.{ ;.{ { { { ",
"{ ;.;.{ ;.;.%.i 1.{ { ;.{ ;.;.;.{ { ;.{ { ;.;.;.B Q ;.;.{ { ;.;.",
"{ { { ;.1.{ 8 ; { ;.;.{ { ;.;.{ { { ;.;.{ { ;.;.; ~ ;.{ { { 1.;.",
"{ { { { { { 6 q { ;.;.;.{ { { { { { { { { { { { q P ;.{ { { 1.1.",
";.;.{ ;.;.{ 2 I { { ;.;.{ ;.;.;.;.{ [ [ ;.;.{ { 6 q { { ;.;.{ { ",
"{ ;.{ ;.{ { & ^ { { { { { ;.;.{ { { { [ ;.{ { { E D { { { ;.{ { ",
"{ { { { ;.;.n u j N ~ ` t g A ! F $ . ; ` U $ X u n { { { { ;.;.",
"{ ;.;.{ ;.] n D / @.& j y ] 9 n j 9 ) 1 X B +./ D O { { { ;.;.;.",
"{ { ;.{ { ;.;.;.{ ;.;.{ ;.{ 1.1.1.1.{ ;.{ { { { { { ;.{ { ;.;.{ ",
"{ { { { { { ;.;.;.{ { ;.;.{ { 1.;.1.{ { { 1.1.1.{ { ;.;.{ { { { ",
"1.1.1.{ { { { ;.;.{ ;.;.{ { { { 1.;.1.{ 1.;.;.1.1.{ ;.;.{ ;.;.;.",
";.;.1.{ { { { { { { ;.;.{ { { { 1.;.;.{ 1.;.;.{ { { { { { ;.;.{ "
};
