/* XPM */
static char *_0c599a42b7a4adccb16431160485734KvEdqzEsMjSPZU5J[] = {
/* columns rows colors chars-per-pixel */
"32 32 81 1 ",
"  c None",
". c #2B4C3E",
"X c #284E3E",
"o c #34453F",
"O c #35493C",
"+ c #27543F",
"@ c #27563F",
"# c #26583D",
"$ c #255B3E",
"% c #245F3C",
"& c #245F3E",
"* c #39503A",
"= c #1F693B",
"- c #1F683E",
"; c #1E6C3D",
": c #187C36",
"> c #187D37",
", c #1A763C",
"< c #19783C",
"1 c #19783D",
"2 c #19793D",
"3 c #187A3C",
"4 c #187B3C",
"5 c #187A3D",
"6 c #21633E",
"7 c #20663E",
"8 c #2E3E42",
"9 c #2E3F42",
"0 c #313E40",
"q c #303C42",
"w c #303D42",
"e c #2D4040",
"r c #2F4040",
"t c #2E4342",
"y c #2B4542",
"u c #2D4641",
"i c #2B4940",
"p c #2A4941",
"a c #2A4A40",
"s c #2B4A40",
"d c #2A4D41",
"f c #2A4E41",
"g c #285140",
"h c #265840",
"j c #245A40",
"k c #255A40",
"l c #0E8F3B",
"z c #118C34",
"x c #15803B",
"c c #13853B",
"v c #14843C",
"b c #11893B",
"n c #12883B",
"m c #0C9732",
"M c #089F30",
"N c #0D9339",
"B c #0D903A",
"V c #0D913B",
"C c #0E913A",
"Z c #0B953A",
"A c #0B973A",
"S c #0C9539",
"D c #0C943A",
"F c #0C953A",
"G c #099A3A",
"H c #089C39",
"J c #03AE2E",
"K c #03AF2E",
"L c #01BB2B",
"P c #05A730",
"I c #59A117",
"U c #5AA317",
"Y c #5AA416",
"T c #64BB0B",
"R c #00C12A",
"E c #00C429",
"W c #00C529",
"Q c #68C405",
"! c #6CCE02",
"~ c #6FD601",
"^ c #73DE00",
/* pixels */
"HH^^^^WHHHH^^^HHHHHHHWWH^^^^^HH ",
"HHH^^^^WHHHH^^^HHHHHHHWWH^^^^^HH",
"HH^WW^HHHHHHWW^HHHHHHHWHHH^WWW^H",
"H^WW^HH^^^HHHW^HH^^^WHHHHHH^WWW^",
"HWHWWHH^WWHHHHHH^^WWWWHHWWHHWHWW",
"HHHWHHH^WHHWc6sted6TWWHHHWHHWHHW",
"HHHHHHHHHHl6qqqqqqqqkDHHHHHHHHHH",
"HH^^^^HHHTtqqqqqqqqqqyJWHHWWWHHH",
"WWWW^HHWlOqqqqqqqqqqq0.DH^WWHHHH",
"HHW^HHWW@qqqqqqqqqqqq006^WWWWWHH",
"WWWHHWWvqqqqqqqqqqqqqqqqQ^^WHHHW",
"^HHHHHH6qqqqqqqqqqqqqqqq;HHHHHHW",
"W^HHWWHdqqqq33qqqqm,qqqqgHHHHWWH",
"W^HHWHHoqqqqDDqqqqDDqqqqiHWWHHWH",
"WW^HHH^qqqqqLVqqqqDDqqqqrHHWHHHH",
"WHWHHWWqqqqq33qqq03Iqqqq9HHHHHHH",
"WHWHWWRqqqqqqqqqqqqqqqqq8HHH^^WH",
"HHHWWHWqqqqqqqqqqqqqqqqq8HHH^WWH",
"HWHHWHW0qqqqqqqqqqqqqqqq8WHHWWHH",
"WWHHHHHqqqqqqqqqqqqqqqqqqRHHHHHH",
"HHHWW^~qqqqqqqqqqqqqqqqq0RHWHHHH",
"HWWHWW!qqqqqqqqqqqqqqqqqqDWWHHWW",
"HHHW^HbqqqqqqqqqqqqqqqqqqJWHHH^W",
"HHHHHHxqqqqqqqqqqqqqqqqqqMWHHH^^",
"WWHWWHzqqqqqqqqqqqqqqqqqq,HHWWHH",
"HWHWHH6qqqqqqqqqqqqqqqqq87HHHWHH",
"HHHHWWkqqqqqqqqqqqqqqqwqqkHHHHWW",
"HWWHWHiqqqqqqqqqqqqqqqwwqgHHHWWW",
"HHWHHWX7DP@t>DU**UA>egbVksWHHWWH",
"HHHHHHWWWHHWWHH^W^HHH^^^HHWWHHHH",
"^^^HHHHWWHWWHHHH^W^H^WW^^HWWHWWW",
"WW^HHHHHHHWWHHHH^WWH^WWHHHHHHWWH"
};
