/* XPM */
static char *f38064183a3a427fa8fd6cac58c81f69NdyN6UGWFo5ozIPd[] = {
/* columns rows colors chars-per-pixel */
"32 32 12 1 ",
"  c None",
". c #182018",
"X c #203120",
"o c #293120",
"O c #294139",
"+ c #187329",
"@ c #415239",
"# c #4A5A41",
"$ c #527341",
"% c #089C39",
"& c #00C529",
"* c #73DE00",
/* pixels */
"%%****&%%%%***%%%%%%%&&%*****%% ",
"O@$$$$$$$$$@O@$$$$$@O@$$$$$$$$$@",
"O@#########@O@#####@O@#########@",
"O@#@@@@@@@#@O@@@@@@@O@#@@@@@@@#@",
"O@#$#####@#@OOOOOOOOO@#$#####@#@",
"O@#$#####@#@O@$$$$$@O@#$#####@#@",
"O@#$#####@#@O@#####@O@#$#####@#@",
"O@#$$$$$$@#@O@#####@O@#$$$$$$@#@",
"O@#########@O@@@@@@@O@#########@",
"O@@@@@@@@@@@OOOOOOOOO@@@@@@@@@@@",
"OOOOOOOOOOOOO.......OOOOOOOOOOOO",
"O@$#@$#Oooo...........ooO@$#@$#@",
"O@$#@$#Oooo...........ooO@$#@$#@",
"O@$#@$#Oooo...........ooO@$#@$#@",
"O@$#@$#Oooo...........ooO@$#@$#@",
"O@$#@$#Oooo...........ooO@$#@$#@",
"O@$#@$#Oooo...........ooO@$#@$#@",
"O@$#@$#Oooo...........ooO@$#@$#@",
"O@$#@$#Oooo...........ooO@$#@$#@",
"O@$#@$#Oooo...........ooO@$#@$#@",
"O@$#@$#Oooo...........ooO@$#@$#@",
"O@$#@$#Oooo...........ooO@$#@$#@",
"O@$#@$#Oooo...........ooO@$#@$#@",
"O@$#@$#Oooo...........ooO@$#@$#@",
"O@$#@$#Oooo...........ooO@$#@$#@",
"O@$#@$#Oooo...........ooO@$#@$#@",
"O@$#@$#Ooooo.........oooO@$#@$#@",
"O+++OOOOOOoo.........ooOOOOOOOOO",
"+*&&+$$$@Ooo.........ooO@$$$++$@",
"O+*&&+##@OoXXXXXXXXXXXoO@##+**+@",
"O@+&&&+#@OoXXXXXXXXXXXoO@#+&&*+@",
"++&&%&+@@OXXXXXXXXXXXXXO@@+%&+@+"
};
