/* XPM */
static char *_7597ab3eaf44a5381e2e1da96b4b3d5Y7oBAbMSflOblWMg[] = {
/* columns rows colors chars-per-pixel */
"32 32 164 2 ",
"   c None",
".  c #760817",
"X  c #7D071A",
"o  c #7C0B18",
"O  c #266227",
"+  c #296428",
"@  c #2A6C2B",
"#  c #2B742F",
"$  c #26792F",
"%  c #3F7E25",
"&  c #4E721C",
"*  c #50731C",
"=  c #64482A",
"-  c #456F20",
";  c #81071B",
":  c #850A1D",
">  c #89091D",
",  c #8C0B21",
"<  c #920B23",
"1  c #9B0D25",
"2  c #9A0C29",
"3  c #971024",
"4  c #9E1126",
"5  c #941A27",
"6  c #A50F28",
"7  c #A20F27",
"8  c #A61229",
"9  c #AE122D",
"0  c #A31A2F",
"q  c #B3122F",
"w  c #B81B2F",
"e  c #A31A30",
"r  c #B71431",
"t  c #BB1432",
"y  c #BC1A34",
"u  c #B71B33",
"i  c #9F2B2F",
"p  c #9E2430",
"a  c #A03C2D",
"s  c #AF2D35",
"d  c #A53630",
"f  c #A23D30",
"g  c #C31535",
"h  c #C91737",
"j  c #C61937",
"k  c #CA1739",
"l  c #C21D3A",
"z  c #D4183C",
"x  c #D2173B",
"c  c #C4203E",
"v  c #BD4C04",
"b  c #B64A04",
"n  c #BF5304",
"m  c #9F6207",
"M  c #92660B",
"N  c #B36F01",
"B  c #B97605",
"V  c #A74F2C",
"C  c #A9522D",
"Z  c #C04C04",
"A  c #C25A05",
"S  c #CD5A00",
"D  c #D05800",
"F  c #C46204",
"G  c #C56A05",
"H  c #C86F05",
"J  c #D56401",
"K  c #DC6200",
"L  c #D76B00",
"P  c #DC6B01",
"I  c #C97605",
"U  c #CA7C05",
"Y  c #DC7500",
"T  c #DC7E00",
"R  c #C6641B",
"E  c #D57B17",
"W  c #E26700",
"Q  c #E46B00",
"!  c #E57300",
"~  c #E87000",
"^  c #E47B01",
"/  c #EA7C01",
"(  c #C64E27",
")  c #C41E41",
"_  c #C32444",
"`  c #C42A44",
"'  c #20811F",
"]  c #2C9F1B",
"[  c #27A61D",
"{  c #31A61C",
"}  c #1B9823",
"|  c #148F36",
" . c #0B9837",
".. c #089C39",
"X. c #0C9536",
"o. c #199132",
"O. c #208420",
"+. c #268D2E",
"@. c #288D2D",
"#. c #209224",
"$. c #2E8F32",
"%. c #269539",
"&. c #309033",
"*. c #00BF28",
"=. c #66881A",
"-. c #70A303",
";. c #5F8229",
":. c #638027",
">. c #759537",
",. c #00C529",
"<. c #6FD700",
"1. c #73DE00",
"2. c #A08504",
"3. c #B3851B",
"4. c #8B8E28",
"5. c #B99828",
"6. c #A29D38",
"7. c #9CAA3A",
"8. c #B1A73D",
"9. c #CB8304",
"0. c #C58104",
"q. c #D18600",
"w. c #DD8400",
"e. c #D88A00",
"r. c #D79909",
"t. c #D78615",
"y. c #EE8402",
"u. c #E28A00",
"i. c #EA8B01",
"p. c #E59301",
"a. c #E59D00",
"s. c #E99A00",
"d. c #EF9509",
"f. c #E99806",
"g. c #F09804",
"h. c #ED8611",
"j. c #EC8B15",
"k. c #E29819",
"l. c #E6A200",
"z. c #EBA402",
"x. c #EBAC00",
"c. c #FCAC00",
"v. c #EEB200",
"b. c #F7B701",
"n. c #F8B00C",
"m. c #EEA310",
"M. c #E5A215",
"N. c #F7A81B",
"B. c #FAA717",
"V. c #E6B51D",
"C. c #EABE1E",
"Z. c #FDB811",
"A. c #FBB21D",
"S. c #C88A24",
"D. c #DF8937",
"F. c #E59B31",
"G. c #C7BA22",
"H. c #D1B123",
"J. c #F6A322",
"K. c #F8A323",
"L. c #E4B224",
"P. c #F6C027",
"I. c #F8C721",
"U. c #F9CA28",
/* pixels */
"....1.1.1.1.,.........1.1.1...............,.,...1.1.1.1.1.....  ",
"......1.1.1.1.,.........1.1.1...............,.,...1.1.1.1.1.....",
"....1.,.,.1.............,.,.1...............,.......1.,.,.,.1...",
"..1.,.,.1.....1.1.1.......,.1.....1.1.1.,.............1.,.,.,.1.",
"..,...,.,.....1.,.,.............1.1.,.,.,.,.....,.,.....,...,.,.",
"......,.......1.,.%.:.=.- X...........<.] =.* $...,.....,.....,.",
"................%.S.h.P J m [ ,.....+.M S P h.t.&...............",
"....1.1.1.1.....>.K.j.^ ! P F { ..+.N ! ! ! j.J.4...,.,.,.......",
",.,.,.,.1.....,.6.K./ W Q ~ ^ B +.2./ ~ Q Q / J.S.1.,.,. .......",
"....,.1.....,.,.8.N./ Q Q Q / p.l.i./ Q Q Q / N.H.,.,.,.,.,.....",
",.,.,.....,.,...7.A.y.~ Q Q P g.c.i.J P Q ~ y.A.G.1.1.,.......,.",
"1.............o.3.A.g.! ^ u.q.w.^ T e.T ^ ! d.P.5.| ..........,.",
",.1.....,.,. .= u D.I.z.E E x.r.B r.n.r.t.f.I.F.u =  .....,.,...",
",.1.....,...$ 5 e p V f d k.Z.m.L.L.n.B.R f C d e 5 } ,.....,...",
",.,.1.......-.u l k ) _ _ s t.M.C.V.k.( ` _ ) _ l u # ,.........",
",...,.....,.#.j ) z z z k 2 9.x.x.v.U 1 k z z z z h # ..........",
",...,...,.,.#.l k k h k g 2 9.x.x.x.9.2 g h g g k g # ..1.1.,...",
"......,.,...#.u g t t t t 2 U a.a.z.U 2 t g g t g w # ..1.,.,...",
"..,.....,...#.9 r r 9 r r < I s.f.s.I < q q r q r 9 # ..,.,.....",
",.,.........# 8 9 9 9 9 9 < H p.u.p.H < 9 9 q 9 9 6 # ..........",
"......,.,.1.-.7 6 6 6 2 1 , F u.w.u.G , 7 6 7 6 8 4 # ,.........",
"..,.,...,.,.-.3 1 1 1 1 1 , F T Y u.A , < 2 1 1 1 3 #.,.....,.,.",
"......,.1...# > > < < < , > A Y Y Y A : < < , < < , #.......1.,.",
"............# : > > > : > ; A L L L n ; > > > > > > #.......1.1.",
",.,...,.,...] X : ; ; ; ; . v J J J b . ; : X X ; : #  .,.,.....",
"..,...,.....# o o o o o o . Z K D K v . o o o o o o # ....,.....",
"........,.,.| @ @ @ ' + + O - & * * & O + + ' O.# # | ......,.,.",
"..,.,...,.........,.,... .............,.,...,.....,.......,.,.,.",
"....,.....,.,.,...,.,...,...1.1.1.1...,.............,.....,.,...",
"............,.,.,.....,.,.....1.,.1.......1.1.1.....,.,.........",
"1.1.1.........,.,...,.,.........1.,.1...1.,.,.1.1...,.,...,.,.,.",
",.,.1...............,.,.........1.,.,...1.,.,.............,.,..."
};
