/* XPM */
static char *_876107bca4d46a4a17ecaeb64163110DVBgri86h7yd0KjY[] = {
/* columns rows colors chars-per-pixel */
"64 64 256 2 ",
"   c #130100",
".  c #240501",
"X  c #391001",
"o  c #441A04",
"O  c #4A1A0A",
"+  c #49270B",
"@  c #4A2718",
"#  c #562C19",
"$  c #5B351A",
"%  c #55270A",
"&  c #6A381A",
"*  c #672F14",
"=  c #583A27",
"-  c #4C3425",
";  c #623523",
":  c #683B28",
">  c #753D28",
",  c #633729",
"<  c #5D402C",
"1  c #5C4533",
"2  c #6C422B",
"3  c #6A452B",
"4  c #77452A",
"5  c #6B4432",
"6  c #684A36",
"7  c #7B4C35",
"8  c #7C4D3B",
"9  c #754837",
"0  c #6C533D",
"q  c #73523B",
"w  c #7C523C",
"e  c #795336",
"r  c #7A4D41",
"t  c #6B5444",
"y  c #7C5C45",
"u  c #7B5C4A",
"i  c #775745",
"p  c #7B614A",
"a  c #7A6454",
"s  c #6E6043",
"d  c #854D38",
"f  c #82533D",
"g  c #885438",
"h  c #96573C",
"j  c #874A2E",
"k  c #A75B3D",
"l  c #B05835",
"z  c #A8623C",
"x  c #B1633C",
"c  c #835543",
"v  c #845B44",
"b  c #8C5A43",
"n  c #825B4A",
"m  c #8C5D4A",
"M  c #895446",
"N  c #935C44",
"B  c #9C5C43",
"V  c #985B48",
"C  c #86544B",
"Z  c #A65E46",
"A  c #B15F46",
"S  c #84634C",
"D  c #8C624C",
"F  c #896546",
"G  c #9C6143",
"H  c #92634B",
"J  c #9C644C",
"K  c #9A6B4D",
"L  c #946749",
"P  c #8C6554",
"I  c #876857",
"U  c #9C6353",
"Y  c #946B53",
"T  c #9C6B54",
"R  c #9B6E5B",
"E  c #946857",
"W  c #94735C",
"Q  c #9B725B",
"!  c #997658",
"~  c #967251",
"^  c #A46244",
"/  c #AB6343",
"(  c #AD6A44",
")  c #A4644B",
"_  c #AC644B",
"`  c #A46A4C",
"'  c #AC6B4C",
"]  c #A76C44",
"[  c #B36545",
"{  c #B36B44",
"}  c #B3654C",
"|  c #B36B4D",
" . c #BB6B4C",
".. c #BB6946",
"X. c #BC734D",
"o. c #B5724B",
"O. c #A56552",
"+. c #AC6553",
"@. c #A46B53",
"#. c #AC6C54",
"$. c #A46D5B",
"%. c #AC6D5B",
"&. c #AA665B",
"*. c #B26552",
"=. c #B36C53",
"-. c #BB6C53",
";. c #B36D5B",
":. c #BB6D5A",
">. c #B76656",
",. c #AC7254",
"<. c #A4735C",
"1. c #AC735C",
"2. c #A87758",
"3. c #B47355",
"4. c #BB7354",
"5. c #BC7956",
"6. c #B4745B",
"7. c #BC745B",
"8. c #B37B5C",
"9. c #BC7A5C",
"0. c #B77855",
"q. c #AF714D",
"w. c #9A6D61",
"e. c #947363",
"r. c #9B7B6B",
"t. c #997863",
"y. c #8F7568",
"u. c #A96E63",
"i. c #A37463",
"p. c #AC7463",
"a. c #A47B64",
"s. c #AC7B64",
"d. c #A57C6A",
"f. c #AC7C6B",
"g. c #A87569",
"h. c #B37563",
"j. c #BB7563",
"k. c #B47B64",
"l. c #BC7C63",
"z. c #B47C6B",
"x. c #BC7D6B",
"c. c #B97669",
"v. c #AC7E70",
"b. c #A67B71",
"n. c #B97D72",
"m. c #BC6D60",
"M. c #C26B4D",
"N. c #C06B46",
"B. c #C2724C",
"V. c #C6744B",
"C. c #C26E52",
"Z. c #C16E5A",
"A. c #C66B5A",
"S. c #C27354",
"D. c #CC7A55",
"F. c #C3745B",
"G. c #CB755B",
"H. c #C37A5D",
"J. c #CA7C5C",
"K. c #C67652",
"L. c #D37C5B",
"P. c #C37463",
"I. c #C37C63",
"U. c #CA7C63",
"Y. c #C37D6B",
"T. c #C97767",
"R. c #D17F61",
"E. c #C67D73",
"W. c #D17D72",
"Q. c #B3815F",
"!. c #9A846A",
"~. c #9C8875",
"^. c #A4826B",
"/. c #AC856B",
"(. c #AA8668",
"). c #B38264",
"_. c #BC8164",
"`. c #B4826C",
"'. c #BB836C",
"]. c #B48A6D",
"[. c #BB8B6A",
"{. c #AB8372",
"}. c #AC8B74",
"|. c #A68877",
" X c #B48473",
".X c #BC8473",
"XX c #B48B73",
"oX c #BC8B74",
"OX c #BC8479",
"+X c #B48C7B",
"@X c #BC8A7B",
"#X c #B48579",
"$X c #AD947A",
"%X c #A9957B",
"&X c #BB9274",
"*X c #B3957B",
"=X c #BC937B",
"-X c #B59579",
";X c #B9916D",
":X c #C8835C",
">X c #D7845B",
",X c #C48264",
"<X c #CB8465",
"1X c #C4836B",
"2X c #CB836A",
"3X c #C48A6C",
"4X c #CB8B6D",
"5X c #C98965",
"6X c #D3866C",
"7X c #D58768",
"8X c #C48473",
"9X c #CB8473",
"0X c #C48B74",
"qX c #CB8B73",
"wX c #C48B7B",
"eX c #CB8C7A",
"rX c #C68579",
"tX c #D48C72",
"yX c #D58776",
"uX c #C3927C",
"iX c #CA937B",
"pX c #C79576",
"aX c #D3957A",
"sX c #C2916F",
"dX c #DA9673",
"fX c #B99784",
"gX c #B39285",
"hX c #B9A38B",
"jX c #BDA392",
"kX c #9B8A80",
"lX c #C48E82",
"zX c #C39282",
"xX c #C49B83",
"cX c #C39B8B",
"vX c #C99886",
"bX c #D39985",
"nX c #CA9D90",
"mX c #C8A58B",
"MX c #D6A387",
"NX c #C4A392",
"BX c #C4AA92",
"VX c #CCAB93",
"CX c #C8AA99",
"ZX c #D4AC97",
"AX c #CBB49B",
"SX c #D3B39B",
"DX c #D6B69A",
"FX c #DCBBAB",
"GX c #D8B9A5",
"HX c #D1B4A7",
"JX c #E2BAAC",
"KX c #E49B88",
"LX c #DCC4AD",
"PX c #DECCB4",
"IX c #E5CAB8",
"UX c #EBCDB8",
/* pixels */
"c.n.rXwX0X X).k.s.k.%.%.h.h.%.p.k.k.m.;.&.u.g.i.g.C u gX+.7.=.' ^ 7.7.3._ 9.,X,X5X:X_.,X9.3.=.7.6.%.;.Y.;.u.m 5 v Y m 6.c.c.n.u.",
"8X8X.X.X.XXX`.`.T %.p.k.k.6.h.8Xz.z.c.P.p.u.d.n.n.E 1 |.V } ^ 3.7._ _ 7.,X5X5X,X0.5.5.3.3.| 3.6.@.h.;.Z &.U 9 : F L J _.E.m.c.E.",
"lXvXvXvXvXuXOXv.`.wXoXz.z..Xn.z.oX_.E.Y.x. XOXOX.Xd.t %X#._ ' ' | _ ' ' 9.9.9.X.5.0.X.3.( ^ / ' @.) &.j.6.h 4 F ~ Q.8.aXqXl.c.h.",
"wXlXlXwXOX X XOXuX.Xz..XwXwXrXoX X.XY.j.n.wXzX X@Xa.0 -X1.7.3.^ / =.F.4.H.H.5X:X,X:X9.9.0.| _ ' q.G Z >.Z ` ,.2.).sX3X4X2X,XY.;.",
"OXOX#Xn.v.n.n.lXOXOXOX.X.XrXwX Xf.f.z.z.v.gXfXv.zXe.- hXr.OX_.8.;.*.-.7.2X9.Y.I.2X,XI.=.} #.Z Z ^ 6.7.7.#.Z @.$.pXdXaX4X2XI.2X1X",
"OX#X#X+XlXfXgXn.f.g.b.{.f.v.f.w.b.w.g.f.g.b.b.b.b.I t y.w.f.OXp.k.h.j.1XqXqXqXqX3X8.#.p.h.%.%.1.k.1.k.1.$.U OXMXMXMXaX3Xl.6.x.z.",
"I a i i u u u t u 1 1 p 0 @ + @ = - # = - @ - - .   - - u > n u 9 M m v D ! W P 9 = , q y 9 q S p i p p S ~.~.~.!.!.!.v y y p i ",
"u s u a a u t t 1 I ~.!.!.~.gXgXkXkXb.|.|.kX|.r.y.y.kXjXNXr.t w.W W I W S S q q 0 p S p u p i 6 1 0 1 1 = t   1 0 < - = 6 < < < ",
"LXIXUXIXIXIXHXgX~.LXPXPXUXPXLXIXIXFXJXGXFXLXGXCXFXCXfXHXNXmXd.=XZXmXZXSXDXSXSXmXfXBXSXBXVXNXVXNXgXHXgXI b.y.I cXcX Xi.v.vX#Xw.#X",
"BXcXHXHXCXjXgXy.kXHXCXgXjX$XXX/.t.Q i.<.Q Q d.a.|.+X$X+X{.#XXXxX`.).k.`.`. X/.a.a.<.a.a.XXXX=X=XOXnXb.b.JXE gXb.OXn.z.n.n.c.g.n.",
"T T U U w.g.#Xr ~.FX{.t.R <.%.#.$.,.' ` L K ] B U <.z.k.z._.pXqX6X6X<X5.4.=.' ) ^ Z 3.1XtX1X9.6.n.c.6 CXIXb. Xn.n.8XrXc.+.O.u.&.",
"8X8XE.n.E.lXlX, w.FX{. Xz.%.+.=./ ^ / / z q.( h 3.O.) B k g ] k k M.K.J.R.H...} _ } H.tXtXH.-.=.m.g.C #XJXnXR @Xh.E.9Xl.#.:.7.*.",
"aXaXqXeX8Xz.i.O u DX}.f @.B 7.-.[ ..4.X.o.X.S. .:X9.H.U.H.q.9.5.S.D.S. .|  .| H.| 4.,X6X5XH.4.3.u.s.a.W LX$XW  X'.qX5Xl.Y.<XF.7.",
"tXqXY.7.h..Xf.; 6 LX-XY ).8.F.A G.S.B.M.{ { ....H.H.F.F.3.3.' k { o.X.X.4.3.| ' 3.6.6.9.6.5.=.' ;.$.F t.AXW {.].0XqX1X9.9.4.Z.S.",
"4.H.4.Z %.8X`.: y DXa.2.,._ k ..Z.} A [ x ] ..} H.;.A k ) #.#.#.H.4.| =.3.7.8.6.1.,.J G B ` ) ` +.$.v y BXe.cXn.Y.j.P.P.:. .A.G.",
"7.P.I.%.6.z.<.9 5 DX}.L ,.6.-.A.=.} | 3.( ^ } 7.,.=.m.+.6.,.` 6.6.' ) ' 3.k.k.%.%.1.h.`.1.1.T <.@.1.D S NX|.i.@X8Xm.Y.9XZ.A.A.A.",
"8Xl.1Xc.s.z.f.n = mXv 2 f 4 O.j.6.9._.6.7.;.h.1.p.$.` %.1.1.) #.` ` %.6.8.1.1.p.O.z.`.'.s.H m i.w.d.W v +X5 = f. X'.z.c.j.m.j.P.",
"U U M M c M 9 # 5 {.e.d.w : > d b b f 7 d N N c i 9 > f e 9 f b N b h V N h N N H v d 9 9 ; # 5 i q u i r.u y v 8 y c 8 9 8 C U ",
"; 2 ; , : r i S a }.NXgX#X+Xf.Q 8 q 5 : : r r i u 6 , 6 - < 5 5 ; = $ ; : 9 7 8 : 9 ; O O # @ O @ @ = i HXIXHX|.e.a t i I r.e.I ",
"z..X X`.v.v.b.{.d.r.+X^.fXxX XoX#XoX{.{.d.v.b.{.b.w.|.e.~.hXW {.z.h.p.p.p.p.p.z.i.z.z.R w.b.v.d.w.w.w.t.fXnXcXfXfXgX{.{.gXfXgX+X",
"eX1X8X8XrXE.lXn.z.i.g.z.$.x.k.k.'._.z.'.h.1.T $.&.g.z.S BXLX$.eX9XyX2XT.P.7.7.3.7.7.8.h.k.8.`.0X8XP.Y.j.B h #.k.h.k._.l.h.h.z._.",
"2X:.:.>.:.m.E.c.h.8X8Xc.x.9XqXqXP.7.=.9.l.6.%.6._ Z.h.w ! }.O.Z.:.A.U.U.F.S.F.H.4.| =.3.0.3.,.,.:.P.Z.7.:.>.=.F.F.H.5.-. .-.-.| ",
"-.7.7.:.F.:.>.m.Y.,XI.6.aXH.9.2XH.Z.-.7.I.Y.1XY.P.T.3XF p ^.c.W.7.H.I.P.H.9.H.H.S.S.H.H.H.U.G.| =.H._ / 4.H.| H.4.F.H.4...[ { } ",
"H.2X4.-.G.U.-.P.7.6.,X9.l.5X,X4.F.G.U.7.F.P.Y.T.T.T.qXv !.mX&.P.7._.,X9.3.5.9.H.U.H.S.S.Z.S.F.-.5.=.` 4.3.I.H.4.4.S.F.S.C.S.S...",
"I.9.| =.:.P.T.j.6.1X3Xl.4X5X,X<XU.U.:.F.7.%.7.m.m.W.rX2 %XhX<.W.Y.l.l.#.#.,X6.7.#.5.,X9.5.F.=.0.3.8.9.%.,.I.I.4.4.S.4.4. .-.K.C.",
"9.6._ ;.m.c.c.Y.j.x.x.k.8XY.1XY.j.1Xc.l.l.x.k.#.m.>..X6 !.AXp.rXh.h 6.).#.9.3X8.9.1X7.8.,X7.+.#.3.#.' +.=.9.=.:.| | -.F.F. .[ [ ",
"x.x.c.z.u.n.g.n.OXn..X.XE.n.rXE.0X0X'.pX'.0X`.8XrX'.vX! t hXu.c.H v R L T K K ,.k.5.l.qXY.:.yXyX1X2X;.Y.l.P.9XY.2XW.4.*.F.2X,XI.",
"m $.U m > C 9 r r r C C c d M d M 8 e c 2 4 ; c U p.i.6     . . o 6 q ; q : % : 4 > > N N V +.Z V O.O.Z d g Z U N V h j g N g j ",
": 9 5 , @ # @ 6 6 = = 0 , , , ; # = 6 q 5 M 9 u r 9 q 6 I a gXw.n w.P n v P P {.d.+Xv.P C 9 9 R +Xy.I r {.}.n n n m n C v 5 : w ",
"{.f.a.{.t.e.t.FXHX~.r.=X@X Xz.z.f.{. XfXwXlX`.`./.f.f.d.gX|.cXnXfX#XOXcX@XfXfXfXmXcXcX{.#X+X{.cXCXIXjXCXUXNX#XfXcXfX`./.XX`.(.#X",
"z.1.a.s.a.Q t.UXGXfX/.xXiXeX1X1Xx.l.8.3X2XU.U.I.Y.,XI.Y.k.1Xj.qX9XY.6.x._.k.l._.2.2.[.pX'.`.'.].$XDX$XGXZX/.oXoX0X1Xl.l.1X4X,X6.",
"^ G J h b f v =XVXxX-X&X.XqXY.F.7.2XI.H.G.G.7XS.:XI.R.U.tXH.6X6XI.F.<X,X,XI.4X_.5X9.@.9.Q.0.3X[.(.! XXDXQ sXpX3X,XH.:XJ.H.K.G.G.",
"( ( ^ _ ` j 8 cXBX}.^.=XoX'.qXY.7.7.7.I.G.J.C.7X4X2XU.tX6XyXtX6X,XH.5X4X5Xl.H.5X5X3X3._.5XQ.,X3XXXt.$XSX}.XXpX2X5XJ.D.:XD.D.K.D.",
"z x o.' #.J Y SXCXr.e.W <.9XY.Y.Y.:.7.} J.4.4.7.2XY.j.j.U.F.H.<XH.9.I.5X,X,X,X5X5.| 3._.4.5.5X8.XXP }.LX*XoXaX4X<XJ.:X:X:XD.G.D.",
"M.M. ._ O.T P SXCXfXI R rXrXW.yXY.c.j.7.7.5.3.l.h.8XE.O.c.1Xl.7.3X2X1XY.I.1X1Xx.1X6.7.j.I.7.=.h.z.d.XXZXi. XbXKXyX6X6X<X<XP.H.G.",
"G. .-.#.$.$.E HXLX|.r.v.wX8XyXY.c.c.c.'.6._.8.z..Xz.g.p.z.z.k.x.c.l.j.c.c.Y.Y.l.x.Y.c.h.l.k.%.8X.Xf.@XSXp.lXlXP.U.U.7.Y.1X9XW.yX",
"j G ` 2.<.R u gXCXr.t I {.`.z.z.c.p.z.h.pXpXwX`.wX X{.f.e. X#X XiXwXwXuXvXeX8XOX8X'.bXbX8Xn.x..XwXm i.VXP R .X8X9XE.1X1X8X8Xn.E.",
"] ~ F 2 e 9 : i u u y.6 . I c f c 7 7 7 e f g e y 9 6 # X 1 u i n v n L H m m H m Y H 8 8 R <.m f 8 W mX+XH r V M N M F m c C 9 ",
"aXpX] & g g m E Q R w.d.K &X(.&X&X(.(.`.~ ! Y ~ t.I |.$X%X%X~.!.t.e.W S p 0 q q p q q t.=Xt.W ^.^.-X$XBXLXjXS v ; > 3 0 w p u C ",
"Q.dXpX[.MX3XiXiXwXoX).[.sX;X[.Q.).@.Q.Q.].;X;X).;XQ }.mXLXHXhXgX%X$X$X(.!.^.}.}.XX-XXX=XXX-X=XXX&X-X-X$X$X*X+X`.oXoXXX(.(././.d.",
"o.Q.:X:X:X5XQ.o.0.2.3.q.] z ( { 4.[ ..7X6X<XtXH.P.1X3Xc..XvXZXE s.`.`.s.].`.1.x.'.3Xx.@.#.%.6.#.#.) $.1.T @.;.;.7.7.7.3.6.l.I.7.",
"V.V.V.{ o.] ] ] q.o.X.x z x x V.D.L.7XtXtXJ.J. .7XtX6X9XV vXZXT oX` k.k.'.1Xl.l.I.=.} _ *.A } -._ ;.7.x.6.%.>.:.A...[  .-. . .M.",
">XV.V.:XV.] o.V.B.V.D.N.V.>X>XV.D.D. .x B.4.4.4.4.H.,X4XO.oXcXR <.`.'.k.h.l.6._.I.| _ -.-.| ..Z.A.H.9.3X1XY.F.G.F. ...S.G.M.M.A.",
"N.V.>X>X>X:XV.z N.N.V.>XV.>Xx V.....{ x 5.9.4.X.{ o.9.3X).uXVXI Y .XY ).'.)._.6.9.4.| 4...C. .M.-.F.=.6.l.Y.>.C.M.M.M.M.B.V.K.V.",
"7XV.x Q.Q.:XV.:X7XL.V.l l x x X.X.K.:X5X:X0.3.o.4.5.q.3XF gXHX1 P H v XXs.J _.6.6.7.-.S. .C.....M.U.H.U.l.P.:.P. .C.B. .{ { M.C.",
"X.z z x o.] x >X7X:XM.M.S.:XX.x X.4.5.0.` ` ` q.q.o.' ).<.gXFXa p : 3 y  Xs.'.8.1.3.3.-.-...[ M. .S.I.7.l.j.F.:.A.-.o.o.| / [  .",
"h ,.z L ~ Q.Q.(.2.q.0.4XH.g G 0.| 5.9.0.` ,.] @.:X,X1.2./.I y.a y.I I p t.! Q <.8._.l.| H.4. .G.L.S.7.' =.;.E.T.P.7.3.,.,.,.;.6.",
"h h g F !.e $ $ + 3 e g g & h h > G G 4 4 4 * 4 4 4 * & # 3 = I 6 = + 1 @ $ 9 3 7 L g & j h h j > * * X o o > j 4 4 4 & > j g 4 ",
"aXMXMXaXaXx.K T L ;XmX&XuXxXMXMXO.,.L /.].W R @.` L F F (.*XBXGXE m D cXVXmX(.(.~ F F <.XX`.f.T a.%X~.*XBXBX*X-XXX^.! -X=X/.(.(.",
"Q.Q.,X<X9X9X3XiX].t.mX! }.Q.).O.3XpX`.oX&X`.0X0XpXsXsX;X&X].=XzXwXuXoXbXsX&X(.&X(.&X/.=XoX`.zXgXe.hX!.AXLXfXVXfX^.XXXXoX&X].[.[.",
"6.=.} Z Z +.;.z.H f XXY T z.$.Z <XtXI.l.h.6.Y.I.H.5.Q.o.,.J O.&.p.k.h.1.O.` ` ` _.[.k.6.1.%.x.h.M i.p ZXbX$.1.z.%.2X1XI.3.=.6.6.",
"1Xl.7._ Z +.) %.T D XX<.s.@X$.8XP.<XY.l.l.j.F.F.U.H.5.o.l.l.rXrX9XeX8X1X_.,X6.#.I.l.=.;.7.:.:.+.p.<.1.1.@.k.,X7.<XF.A A -. .} Z ",
"8.7.j.:.m.h.%.p.$.8  X<.f.<.p.Y.:.I.x.8XrXE.T.P.T.F.9.l.qXeXbXyXrXeX9Xl.l.9.F.P.7.-.=.Z.A.>.>.>.%.1.k.o x.tX,X7XR.R.L.R.G. .F.5X",
"k.j.j.;.m.Y.c.OXi.d fXg.9 d O.V ;.6.6.k.8XP.Z.P.A.F.Y.l.3X.XeXeXwX0X8X3X1Xl.1X6XU.F.F.G.T.H.F.P.8Xp.8X% ).' q.{ M.A.N...-. .3.' ",
"m.%.#.O.u.x.x.wXg.f zXa.# p.lX8X5.5.8.5.I.H.F.F.-.7.I.8.)._.0XeXoXoX.X[..Xl.3.3.,X7.6.4.9.7.6.1.p..X'.# L 2.5.5...L.C...| ( q.` ",
"z.z..X'.rXwXwXzX X; #XR m OXz.z.2.1.8.2.,.6.;.:.*.6._.).).).'.z.=XxXuXvXsX'.k.l._.l.9.1.,.,.2.2.z.OXf.4 ).).Q.:X4.J.S.| ( q.2.2.",
"y S F ! F 6 6 $ . p ^.%X6 !.!.Q.^.s.<.! Y Y %.p.h.a./.^.I W E d. X-XoX/.`.`.1.k.'._.k.).).Q.Q.2.{.=XW o F ! ;XQ.5X5X_.Q.Q.` e L ",
"e S ! S ! (.%X!.%XhXBXAX$X!.F 3 Y D w e e 7 4 ; ; 6 @   6 = X + $ & : 2 d f : & 7 4 4 & 4 e e + 6 $ X q !.F $ 4 & 4 * % + o + + ",
"pXbXbXoXmXMXxXvXVX&XuXxXxXoX&X;X` @.2.k._._.6.O.k.M XXUXmXv 1.1.p.$.T V V O.J J k.b g 2.! w L uXmXNXDXVXUXMXmXmX(.=XmXmXmXBXDX-X",
"@.J O.O.6.s.#.z.,.k.x.3X_.3X9.3.l.1X5X1X,X9.,XqXvXH JXDX/.pXwXqXlXeXeXqX0X0XeXiXiXuXiX`.8.).pXxXuXvXmX-XpXpXxX=X=X&XpX;X;XuXpX&X",
"_ =.+.O.N B ` V B ) Z #.h _ Z #.7.;.+.G N B ) O.$.: ZXfXW Y ) #.+.) ;.6.k.x.6.1.,.1.6.@.J 1.#.O.@.` B m.+.j.;.h.2.T 2.~ Q.1.,.9.",
"=.} _ +.Z J +.h h ) ' =._ / Z / +._ ^ ^ ) ` ) @.H D |.fX-XK J _ =.#.6.3.3.%.' @.x.l.0X6.B B B ` ^ _ :.} *.*.Y.c.wX`.L L ).,.=.4.",
"=.Z Z ' ,.` G h _ #.#.| 9.I.5.[ } [ k z z z ` ,.K F /.DXDX2.B 7._ #.| #.1.,.` ,.k.,._._.9.6._ 4.^ z | -.P.T.2X3Xs.2.g ~ ).l.5.-.",
"^ ^ ) h h j j G B h h k ^ k ^ | / k k / ( ] z G K e }.AXiX4 9.z _ Z h g ^ ` G @.8.,.l.l.3.7._ | ( z / [ -.:.I.).Q.^.(.].8.4XH.J."
};
