/* XPM */
static char *_3a7bbdb6d2b435aad4bed61c66ff45dIQJ8OyBj97Hza5oH[] = {
/* columns rows colors chars-per-pixel */
"32 32 159 2 ",
"   c None",
".  c #484848",
"X  c #646464",
"o  c #747475",
"O  c #9F7F00",
"+  c #947D23",
"@  c #089C39",
"#  c #149D37",
"$  c #119F3E",
"%  c #199E36",
"&  c #2D942B",
"*  c #1EA035",
"=  c #3EA52E",
"-  c #27A137",
";  c #33A431",
":  c #3CA433",
">  c #45A62D",
",  c #55A829",
"<  c #5DB03D",
"1  c #78AF20",
"2  c #00C529",
"3  c #15C525",
"4  c #07C536",
"5  c #3ECC38",
"6  c #73DE00",
"7  c #7EDD00",
"8  c #7CC814",
"9  c #5FCD39",
"0  c #6DCE33",
"q  c #0F9C43",
"w  c #179F48",
"e  c #17A046",
"r  c #25A547",
"t  c #31AA58",
"y  c #3CAC61",
"u  c #4FB25E",
"i  c #58B359",
"p  c #4DB363",
"a  c #62B867",
"s  c #61BC7F",
"d  c #1FCB40",
"f  c #43D067",
"g  c #76DB7D",
"h  c #9F8100",
"j  c #9F830F",
"k  c #81B21E",
"l  c #9DB816",
"z  c #BBBD0D",
"x  c #A6BA14",
"c  c #8DB527",
"v  c #96BA2F",
"b  c #B0BF22",
"n  c #C6BF09",
"m  c #87DE0A",
"M  c #A5DA04",
"N  c #84E00D",
"B  c #A2E235",
"V  c #C6C507",
"C  c #DFC603",
"Z  c #D8D307",
"A  c #C4CF1C",
"S  c #EDCA01",
"D  c #E3C80A",
"F  c #F5C400",
"G  c #F6CA00",
"H  c #FFCC00",
"J  c #FFCE0C",
"K  c #FFD300",
"L  c #FFCF12",
"P  c #F5C915",
"I  c #FFD115",
"U  c #FFD21A",
"Y  c #DCCE3B",
"T  c #FFD425",
"R  c #FFDD20",
"E  c #FFD52B",
"W  c #FFDD2A",
"Q  c #EBC839",
"!  c #F0CD3E",
"~  c #FFD632",
"^  c #FFDC36",
"/  c #FFD739",
"(  c #FFD939",
")  c #F5D336",
"_  c #FFE131",
"`  c #D3B951",
"'  c #BFCB49",
"]  c #ACD753",
"[  c #A8CB65",
"{  c #BDD068",
"}  c #DCC04D",
"|  c #C0D542",
" . c #DFDD5E",
".. c #E5C544",
"X. c #FED944",
"o. c #FEDC4C",
"O. c #E2C75A",
"+. c #E0DB53",
"@. c #FFDD54",
"#. c #D3E14F",
"$. c #FFE74E",
"%. c #FFE452",
"&. c #FFE35D",
"*. c #D8C579",
"=. c #DADA74",
"-. c #E2C968",
";. c #EBD668",
":. c #E2CC72",
">. c #E9D57D",
",. c #D3EB7B",
"<. c #FEE464",
"1. c #FFE26A",
"2. c #FFE96C",
"3. c #FFE966",
"4. c #FFE57D",
"5. c #FFE975",
"6. c #858586",
"7. c #909090",
"8. c #9A9A9A",
"9. c #BBBCBD",
"0. c #BBD586",
"q. c #D1C389",
"w. c #D8CC99",
"e. c #E0CD80",
"r. c #E2D18D",
"t. c #DEE192",
"y. c #FFE782",
"u. c #FFEC85",
"i. c #FFE789",
"p. c #FFEA8A",
"a. c #F0E284",
"s. c #F4E693",
"d. c #FEEA93",
"f. c #FFEB99",
"g. c #D7CCA2",
"h. c #CFCAB8",
"j. c #E8DAA4",
"k. c #FFEDA3",
"l. c #FFEEAB",
"z. c #FFF1AE",
"x. c #FFF1A6",
"c. c #EBE2BA",
"v. c #FFEFB1",
"b. c #FFF2B4",
"n. c #FFF2BE",
"m. c #B9BBC1",
"M. c #C4C5CA",
"N. c #D7D4C8",
"B. c #DADADA",
"V. c #FEF3CB",
"C. c #FFF7C9",
"Z. c #E3E1DB",
"A. c #FFF7D4",
"S. c #FFF9DC",
"D. c #DBDDE3",
"F. c #D5D7E0",
"G. c #E4E4E4",
"H. c #FFFAE4",
"J. c #FFFDF4",
/* pixels */
"@ @ 6 6 6 6 2 @ @ @ @ 6 6 6 @ @ @ @ @ @ @ 2 2 @ 6 6 6 6 6 @ @   ",
"@ @ @ 6 6 6 6 2 @ @ @ @ 6 6 6 @ @ @ @ @ @ @ 2 2 @ 6 6 6 6 6 @ @ ",
"@ @ 6 2 2 6 @ @ @ @ @ @ 2 2 6 @ @ @ @ @ @ @ 2 @ @ @ 6 2 2 2 6 @ ",
"@ 6 2 2 6 @ @ 6 6 6 @ @ @ 2 6 @ @ 6 6 6 2 @ @ @ @ @ @ 6 2 2 2 6 ",
"@ 2 @ 2 2 @ @ 6 2 2 @ @ @ @ @ - m N 4 4 2 2 @ @ 2 2 @ @ 2 @ 2 2 ",
"@ @ @ 2 @ @ @ 6 2 @ @ 4 i [ =.a.s.s.t.,.g f t e @ 2 @ @ 2 @ @ 2 ",
"@ @ @ @ @ @ @ @ @ @ r ] 1.u.k.C.S.H.C.b.d.0.s p * @ @ @ @ @ @ @ ",
"@ @ 6 6 6 6 @ @ @ m A ^ %.1.y.d.k.k.f.p.2.%.' 4 q @ 2 2 2 @ @ @ ",
"2 2 2 2 6 @ @ 2 # Z R T E ~ ~ ~ / / ~ E U I K x @ 6 2 2 @ @ @ @ ",
"@ @ 2 6 @ @ 2 2 c _ ! r.j...L J H H H H H H H K M 2 2 2 2 2 @ @ ",
"2 2 2 @ @ 2 2 ; ) X.g.F.m.Z.Q I H H H H H H H H S 7 6 2 @ @ @ 2 ",
"6 @ @ @ @ @ @ v $.-.G.6.X F.*.T J H H H H H H H K 1 @ @ @ @ @ 2 ",
"2 6 @ @ 2 2 # Y &.*.D.7.8.M.w./ U H H H H H H H K V @ @ @ 2 2 @ ",
"2 6 @ @ 2 @ : o.5.=.D.o . D.q.o.T J H H H H H H K S 3 2 @ @ 2 @ ",
"2 2 6 @ @ @ M &.y.s.h.B.9.Z.:.@.~ J H H H H H H H H > 2 @ @ @ @ ",
"2 @ 2 @ @ 2 0 3.i.l.c.N.N.w.4.@./ L H H H H H H H K , @ @ @ @ @ ",
"2 @ 2 @ 2 2 0 2.d.v.S.H.V.z.>.` Q P F F F F F F F G , @ 6 6 2 @ ",
"@ @ @ 2 2 @ 9 1.d.v.S.J.A.l.p.O.+ j O O O O O O O h & @ 6 2 2 @ ",
"@ 2 @ @ 2 @ 5 <.d.v.A.H.V.l.i.` ) I H H H K H H K G - @ 2 2 @ @ ",
"2 2 @ @ @ @ r ;.i.k.n.V.n.k.:.` ( I H H H H H H K V # @ @ @ @ @ ",
"@ @ @ 2 2 6 6 #.5.d.x.b.l.d.;.@.~ J H H H H H H K 8 @ 2 @ @ @ @ ",
"@ 2 2 @ 2 2 6 B 1.y.d.f.d.4.<.X.T J H H H H H H S - 2 2 @ @ 2 2 ",
"@ @ @ 2 6 @ q e { 2.4.4.4.1.@./ I H H H H H H K k 2 2 @ @ @ 6 2 ",
"@ @ @ @ @ @ @ @ p +.<.1.<.@.X.E J H H H H H K z # 2 2 @ @ @ 6 6 ",
"2 2 @ 2 2 @ 2 2 q a +.@.o.X.E I H H H H H K V % @ @ @ @ 2 2 @ @ ",
"@ 2 @ 2 @ @ @ 2 @ w p | ~ W I J H H K K G l % @ @ @ @ @ @ 2 @ @ ",
"@ @ @ @ 2 2 @ @ @ @ 2 w < b D G H G D x > @ 2 2 @ @ @ @ @ @ 2 2 ",
"@ 2 2 @ 2 @ @ @ @ 2 2 @ @ @ % ; = ; # 2 2 @ 2 @ @ 2 @ @ @ 2 2 2 ",
"@ @ 2 @ @ 2 2 2 @ 2 2 @ 2 @ 6 6 6 6 @ 2 @ @ @ @ @ @ 2 @ @ 2 2 @ ",
"@ @ @ @ @ @ 2 2 2 @ @ 2 2 @ @ 6 2 6 @ @ @ 6 6 6 @ @ 2 2 @ @ @ @ ",
"6 6 6 @ @ @ @ 2 2 @ 2 2 @ @ @ @ 6 2 6 @ 6 2 2 6 6 @ 2 2 @ 2 2 2 ",
"2 2 6 @ @ @ @ @ @ @ 2 2 @ @ @ @ 6 2 2 @ 6 2 2 @ @ @ @ @ @ 2 2 @ "
};
