/* XPM */
static char *_1fddd01e6504e9ad9fd3c94036c1ce8A3bVpI1s015iemZR[] = {
/* columns rows colors chars-per-pixel */
"32 32 168 2 ",
"   c None",
".  c gray23",
"X  c #737373",
"o  c #7D7D7E",
"O  c #089837",
"+  c #089C39",
"@  c #0B9435",
"#  c #179736",
"$  c #288F2B",
"%  c #00BC27",
"&  c #21A034",
"*  c #34A332",
"=  c #689418",
"-  c #7E9711",
";  c #6EA917",
":  c #48A62C",
">  c #5EAC2D",
",  c #42A632",
"<  c #74B231",
"1  c #02C327",
"2  c #00C529",
"3  c #11C93C",
"4  c #55C81B",
"5  c #6DD000",
"6  c #73DE00",
"7  c #67C917",
"8  c #48CC3D",
"9  c #0E9B43",
"0  c #1BA148",
"q  c #27A554",
"w  c #2FA65B",
"e  c #38AB57",
"r  c #58B14D",
"t  c #44AE5C",
"y  c #5DB352",
"u  c #4BB36C",
"i  c #5BB979",
"p  c #2CCD53",
"a  c #3AD05D",
"s  c #7FD762",
"d  c #72DA77",
"f  c #83A808",
"g  c #93A806",
"h  c #86BA01",
"j  c #9CB616",
"k  c #A4A806",
"l  c #B8A907",
"z  c #A0B300",
"x  c #AABB12",
"c  c #E8BF00",
"v  c #E0BC00",
"b  c #C7B527",
"n  c #CBB03D",
"m  c #DBBB3C",
"M  c #D5B73E",
"N  c #86DB00",
"B  c #81C913",
"V  c #80E00D",
"C  c #80E110",
"Z  c #BDC638",
"A  c #B7D33A",
"S  c #C9C208",
"D  c #D4C303",
"F  c #D7D40D",
"G  c #C6DA1C",
"H  c #E9CB02",
"J  c #FFCC00",
"K  c #FFCE0B",
"L  c #F2C502",
"P  c #FFD400",
"I  c #E4CF15",
"U  c #E9D114",
"Y  c #FFD113",
"T  c #FFD21D",
"R  c #FFD81F",
"E  c #C5C62E",
"W  c #C2C938",
"Q  c #DADC36",
"!  c #FED424",
"~  c #FFDD27",
"^  c #FFD52C",
"/  c #F5CE34",
"(  c #FFD734",
")  c #FFDA34",
"_  c #FCD73C",
"`  c #FFD83B",
"'  c #FFE03A",
"]  c #8DBD4F",
"[  c #D5BB54",
"{  c #D2BE70",
"}  c #94C25B",
"|  c #9BD75E",
" . c #ADC64E",
".. c #BFCA4C",
"X. c #97C564",
"o. c #BFD47A",
"O. c #DCD44E",
"+. c #DBC35C",
"@. c #ECCA43",
"#. c #F1CE42",
"$. c #FEDA43",
"%. c #FFDC4A",
"&. c #F6DA44",
"*. c #EED058",
"=. c #FFDD53",
"-. c #FFDF5C",
";. c #F8D752",
":. c #C5E24C",
">. c #FFE041",
",. c #FFE352",
"<. c #FEE15C",
"1. c #DEC662",
"2. c #D8C474",
"3. c #E2C861",
"4. c #E7DC65",
"5. c #E4DE73",
"6. c #C2E866",
"7. c #D5E563",
"8. c #FFE562",
"9. c #FFE36D",
"0. c #FFE96E",
"q. c #FFE863",
"w. c #FFE571",
"e. c #FFEB74",
"r. c #FFE57E",
"t. c #FFE87C",
"y. c #62BA83",
"u. c gray52",
"i. c #A6A6A6",
"p. c #AFB0B2",
"a. c #9DCF92",
"s. c #D1C284",
"d. c #D8C88B",
"f. c #D7CB97",
"g. c #D7E897",
"h. c #FDE584",
"j. c #FEE984",
"k. c #FFE98C",
"l. c #FFEA94",
"z. c #FFEC9C",
"x. c #F2E29E",
"c. c #FFF29C",
"v. c #CDC5A3",
"b. c #D1CBAF",
"n. c #D7D0B4",
"m. c #E1DBBB",
"M. c #FDEDA5",
"N. c #FFEEAB",
"B. c #FFF2A9",
"V. c #FFEFB1",
"C. c #FFF2B4",
"Z. c #FFF2BC",
"A. c #BFC0C4",
"S. c #C8C7C3",
"D. c #D8D5C9",
"F. c #CCCDD1",
"G. c #DCDBDA",
"H. c #F1E9CB",
"J. c #FFF5CA",
"K. c #E5E2D2",
"L. c #FFF6D2",
"P. c #FFF8DB",
"I. c #EAEAED",
"U. c #E5E6EA",
"Y. c #FFFBE2",
"T. c #F5F3EB",
"R. c #EEF0F8",
"E. c #FFFDF2",
/* pixels */
"+ + 6 6 6 6 2 + + + + 6 6 6 + + + + + + + 2 2 + 6 6 6 6 6 + +   ",
"+ + + 6 6 6 6 2 + + + + 6 6 6 + + + + + + + 2 2 + 6 6 6 6 6 + + ",
"+ + 6 2 2 6 + + + + + + 2 2 6 9 + + + + + + 2 + + + 6 2 2 2 6 + ",
"+ 6 2 2 6 + + 6 6 6 + + + 2 N r X.7.6.6.d u q 0 + + + 6 2 2 2 6 ",
"+ 2 + 2 2 + + 6 2 2 + + e X.5.h.c.C.Z.C.M.g.a.y.a 3 + + 2 + 2 2 ",
"+ + + 2 + + + 6 2 + + 8 *.8.h.M.Z.L.Y.P.Z.M.j.o.i p + + 2 + + 2 ",
"+ + + + + + + + + + : I ^ %.;.9.r.k.l.k.t.w.-.` W 0 + + + + + + ",
"+ + 6 6 6 6 + + + N I ~ ^ ^ ! / ! ^ ^ ^ ~ T Y K P x 2 2 2 + + + ",
"2 2 2 2 6 + + 2 + F ' ` @.@./ T K J J J J J J J J P 4 2 + + + + ",
"+ + 2 6 + + 2 2 > ) >.1.K.I.f./ T K J J J J J J J P D 2 2 2 + + ",
"2 2 2 + + 2 2 + E ,.*.D.A.X R.{ ^ Y J J J J J J P v h 2 + + + 2 ",
"6 + + + + + + * &.q.2.I.y.X S.n./ T K J J J J P k $ + + + + + 2 ",
"2 6 + + 2 2 + < ,.w.s.U.u.i.p.D.#.( K J J P c = O + + + + 2 2 + ",
"2 6 + + 2 + + G q.t.d.I.X . F.b.;.` T J P l $ 1 2 + 2 2 + + 2 + ",
"2 2 6 + + + 6 A 0.k.x.S.G.i.I.s.q.$.T L z 5 2 2 2 + + 2 + + + + ",
"2 + 2 + + 2 2 Q e.l.C.m.D.G.v.h.+.m b h 2 6 6 2 2 + + + + + + + ",
"2 + 2 + 2 2 % :.e.l.Z.Y.T.H.N.l.9.n ; 6 6 + + + + + + + 6 6 2 + ",
"+ + + 2 2 9 %  .e.l.Z.P.E.P.V.l.0.M b # O 1 2 + + + + + 6 2 2 + ",
"+ 2 + + 2 + 2 ] e.l.V.L.P.L.N.l.3.M ^ l @ 1 + + + 2 + + 2 2 + + ",
"2 2 + + + + + y 9.k.M.Z.J.Z.M.h.[ $.! P l @ + + 2 2 + + + + + + ",
"+ + + 2 2 6 6 6 4.t.l.N.V.M.l.r.-.` T J P k % + 2 2 + 2 + + + + ",
"+ 2 2 + 2 2 6 6 :.0.h.l.z.l.h.9.=.( Y J J P g % + + 2 2 + + 2 2 ",
"+ + + 2 6 + + + t 4.w.h.h.r.w.-.$.^ J J J J P f O 2 2 + + + 6 2 ",
"+ + + + + + + + 9 s <.9.9.9.8.%.( T K J J J J J - 1 2 + + + 6 6 ",
"2 2 + 2 2 + 2 2 + w | ,.-.=.%.) ! K J J J J J P D # + + 2 2 + + ",
"+ 2 + 2 + + + 2 + + w } &.` ) ~ Y J J J J P P S * + + + + 2 + + ",
"+ + + + 2 2 + + + + 2 0 y Z ! Y J J J J P H B 1 + + + + + + 2 2 ",
"+ 2 2 + 2 + + + + 2 2 + + 9 * x J J J H 7 & 2 + + 2 + + + 2 2 2 ",
"+ + 2 + + 2 2 2 + 2 2 + 2 + 6 6 6 6 + 2 + + + + + + 2 + + 2 2 + ",
"+ + + + + + 2 2 2 + + 2 2 + + 6 2 6 + + + 6 6 6 + + 2 2 + + + + ",
"6 6 6 + + + + 2 2 + 2 2 + + + + 6 2 6 + 6 2 2 6 6 + 2 2 + 2 2 2 ",
"2 2 6 + + + + + + + 2 2 + + + + 6 2 2 + 6 2 2 + + + + + + 2 2 + "
};
