/* XPM */
static char *b212d9603947454a9048ba83cede102fpfqdKOnz9nfyfMNY[] = {
/* columns rows colors chars-per-pixel */
"64 64 256 2 ",
"   c #771501",
".  c #753006",
"X  c #733A34",
"o  c #542515",
"O  c #794835",
"+  c #744B35",
"@  c #7D4719",
"#  c #585651",
"$  c #695549",
"%  c #775747",
"&  c #715452",
"*  c #786559",
"=  c #706555",
"-  c #6A696A",
";  c #796A66",
":  c #7B7369",
">  c #7A7976",
",  c #707674",
"<  c #605D64",
"1  c #484A5C",
"2  c #8D3606",
"3  c #8D3218",
"4  c #984711",
"5  c #A9500E",
"6  c #984826",
"7  c #89563A",
"8  c #995739",
"9  c #914E30",
"0  c #A75627",
"q  c #A65737",
"w  c #AE532D",
"e  c #B66538",
"r  c #A96C36",
"t  c #9A643E",
"y  c #D2753E",
"u  c #875949",
"i  c #975946",
"p  c #895A56",
"a  c #965D54",
"s  c #894E4C",
"d  c #A55A47",
"f  c #AF5D4B",
"g  c #88624B",
"h  c #99644A",
"j  c #866859",
"k  c #996758",
"l  c #99745C",
"z  c #8D725F",
"x  c #A76648",
"c  c #B46848",
"v  c #A66A58",
"b  c #B76B57",
"n  c #A7755B",
"m  c #B77558",
"M  c #B4764C",
"N  c #8C6C63",
"B  c #856B68",
"V  c #986C63",
"C  c #82746C",
"Z  c #8C756B",
"A  c #877769",
"S  c #93756B",
"D  c #9A7768",
"F  c #847A73",
"G  c #8B7B73",
"H  c #897978",
"J  c #947B73",
"K  c #9C7C73",
"L  c #9B7D7A",
"P  c #947877",
"I  c #866F73",
"U  c #A66C64",
"Y  c #AC7464",
"T  c #A67868",
"R  c #B67968",
"E  c #A37C73",
"W  c #A97B76",
"Q  c #B57B73",
"!  c #B36F6C",
"~  c #C57758",
"^  c #C76F4B",
"/  c #C47B68",
"(  c #CC7F6C",
")  c #7E827C",
"_  c #8B837C",
"`  c #878479",
"'  c #938375",
"]  c #94837B",
"[  c #9B847C",
"{  c #9C8A7C",
"}  c #988678",
"|  c #93826C",
" . c #A8866D",
".. c #B9836A",
"X. c #AB8474",
"o. c #A3847C",
"O. c #AB847B",
"+. c #A48A7D",
"@. c #A78776",
"#. c #B48375",
"$. c #B88979",
"%. c #B7937C",
"&. c #A9907A",
"*. c #B6805E",
"=. c #C9866A",
"-. c #D48768",
";. c #C68876",
":. c #D48B75",
">. c #C7937C",
",. c #D49475",
"<. c #E39875",
"1. c #CC8F67",
"2. c #7A7586",
"3. c #5A6C84",
"4. c #867A82",
"5. c #987D82",
"6. c #B17C82",
"7. c #79848C",
"8. c #848382",
"9. c #8B8C8A",
"0. c #898986",
"q. c #938483",
"w. c #9C8583",
"e. c #948B84",
"r. c #9C8C84",
"t. c #948D8B",
"y. c #9B8C8A",
"u. c #9A878B",
"i. c #8B928B",
"p. c #9C9385",
"a. c #94938C",
"s. c #9C938C",
"d. c #98968A",
"f. c #878A94",
"g. c #988C94",
"h. c #8D9496",
"j. c #949493",
"k. c #9C9493",
"l. c #969992",
"z. c #9B9B94",
"x. c #9C9C9A",
"c. c #97969B",
"v. c #AA8583",
"b. c #A38C84",
"n. c #AB8C83",
"m. c #A38D8A",
"M. c #AB8E8B",
"N. c #A48583",
"B. c #B38C84",
"V. c #BB8C85",
"C. c #B68A87",
"Z. c #A39284",
"A. c #A4938C",
"S. c #AC948C",
"D. c #AB9A8D",
"F. c #A89588",
"G. c #B49384",
"H. c #B4958B",
"J. c #BB948C",
"K. c #BB9C8E",
"L. c #B99687",
"P. c #A39593",
"I. c #AB9493",
"U. c #A39B94",
"Y. c #AB9B93",
"T. c #A49C9A",
"R. c #AB9C9B",
"E. c #A7969A",
"W. c #B39492",
"Q. c #B49C94",
"!. c #BB9D94",
"~. c #B39D9B",
"^. c #BB9897",
"/. c #B28E93",
"(. c #9CA19B",
"). c #A3A39C",
"_. c #ABA39C",
"`. c #A8A397",
"'. c #BBA195",
"]. c #B3A39C",
"[. c #BBA39C",
"{. c #B7A69A",
"}. c #B9A893",
"|. c #9A9CA2",
" X c #8794A4",
".X c #A79DA2",
"XX c #B99DA3",
"oX c #9DA5A5",
"OX c #9EADB5",
"+X c #A3A4A3",
"@X c #ACA5A3",
"#X c #ABAAA5",
"$X c #ABACAB",
"%X c #A6A8A9",
"&X c #B3A4A4",
"*X c #BAA6A2",
"=X c #B3ABA3",
"-X c #BCABA4",
";X c #B4ACAA",
":X c #BBACAB",
">X c #B5A6A9",
",X c #ACB2AD",
"<X c #B3B3AD",
"1X c #BBB2AD",
"2X c #B9B4A9",
"3X c #A9ADB3",
"4X c #B6ADB2",
"5X c #ADB2B4",
"6X c #ABB6B9",
"7X c #B4B4B3",
"8X c #BBB4B3",
"9X c #BAB9B5",
"0X c #B5BABC",
"qX c #BCBBBC",
"wX c #B4B6B8",
"eX c #C68D85",
"rX c #C79789",
"tX c #D59889",
"yX c #C29B94",
"uX c #C39D9A",
"iX c #C89A95",
"pX c #D69C95",
"aX c #D18D80",
"sX c #C9A189",
"dX c #DCA58D",
"fX c #C3A39C",
"gX c #C6A79A",
"hX c #D6A797",
"jX c #D2B18F",
"kX c #C4A5A3",
"lX c #C3AAA4",
"zX c #C2ACAA",
"xX c #CAA9A5",
"cX c #D4AAA6",
"vX c #C3B2AB",
"bX c #CCB4AA",
"nX c #D5B6A9",
"mX c #C4B4B3",
"MX c #C7B9B7",
"NX c #D4B9B5",
"BX c #C9AFB2",
"VX c #E9B8A3",
"CX c #D9A596",
"ZX c #BBC3BF",
"AX c #C5C2BD",
"SX c #D3C5BA",
"DX c #BBBCC2",
"FX c #AFBCC4",
"GX c #C7BDC1",
"HX c #D6BDC3",
"JX c #BBC2C6",
"KX c #BFC9D2",
"LX c #C8C6C7",
"PX c #D6C9C8",
"IX c #CCCED3",
"UX c #DADADF",
/* pixels */
"`.} h T #.n C u p & * - ; B D E M.A.V S k u h.@.k D W ! h.5.V 2.o.~.w.H 4.Y yX$Xu.XXXXE.DXzX:XlX[.}.iXeXpXeX^.~.SXBXlXgXvXA.MXNX",
"8.y.j j N S.a.C C - 2.2.- - ; ; 0.#XN.Z G L T.t.[ L L M.j.g.w.> w.P.5.F C L ~.a.u..XE.P +XR.|..Xx.T.H.^.kXW.B.m.NXuXD kXBXu.:XJ.",
"j.y.P.(.3X3X3X+X6X%X3X+Xg.3Xx.` +X7XwX0XJXLXwX6XDXFXoX3X%X5XwX7X3X$XwX$X%XDXqX5X.X>X#X@X@X5X>X.XkX-X4XvX:X#X4X;XY.N.T.zX*Xm.y.4.",
"i h h T y.W E.N..X5X%X|.E.E.I.G V m.N.P.JXV.u.L Q 6X.XU E 5.H 8XuXzX&X:X4XMXMXHXuXXX4XeXn.kXxX>X<.CXdXdXdXhXcXbXcXxX^.iXuXpX/.P.",
"C G G q.a.y.T.s.z.#Xj.9.` : k.).] A.d.R.DXM.C P v.%X$XL P C 7.wXW.Q.~.M.P.>X@X4XXX@X#Xn.J R.xX;XG.eX>.rXhXH./.I.^.^.>X^.M.W 5.h.",
"l.)._.[.*X&X$X,X#X).z._.j.q.wX3XZX<X=X;XMX$Xc.a.@XXX1X;X$X3X%XLX@XP.wX.XI.E.I.8X:XmXPXzXK.LX@X-Xk.|.j.v.].R..X>X:X>XLX;X4Xh.%X|.",
"g Z x m c i [ M.H < - 4.@Xp @X5.r { F.3 I h v.] q f U 6 r.u.6.#...eX>X! b ! ! .X$.eXnXtX( [.a V k 5./.-.eXpXtXtXeXhXyXcXNX|.2.4.",
", i.G J w.y.%X).0.> 9.+X,X(.5X|.9.3XJX$Xc.t..Xx.y.k.|.g.T.h.y.R.&X:X8XP.y..X>XwX&X:XlX'.~.j.0.9.> 8.+X^.~.>XM.m.W.V.4XBX/.f.7.2.",
"_ ) C e.} n.W.P.d.d.b..XDXXX7X_.I.*X1X%XIX4XwXwXwXDXDX3XFX3XFXUXIXLXDX6XFX^.XX:X>XGXLXzXBXvXgX8XI.!.vX[.Y.MXlXfX-X!.;X:X-X!.fX.X",
"+ X o u i q x % * e.; I L N k.D f U W v 3XU [ 6.N.m.L q a s B KXR.b >X4..XU R eXV.W kXpXtXtXtX^.=.pXrX#.$.tX:.:.rXaX[.gXtXrXaXW ",
"` ) 9.l.T._.@X$XoX).i.i.(.qXwXk.z.A.A.].4X@X+Xj.t.%X.Xx..XP.x.FX4XI.P.g.j.P.I.P.k..X.XI.I.G.Q.m.K Y.A.%X$X].].!.@X=X,X@XL m.>Xx.",
"` ) : : , > T.[.#.J.!.R.;XeXs.+.Y k.[ n.[ F t.3Xm.h.oXXXOX~.:XC.^.:X;X*XzX^.J.4X~.*X4X/.v.qXMXJ.iXyXR.*XkXuXkXxX>XBXPXHXmX@XGXNX",
"$ - + # $ $ { n q Y Y } j.v * N.c P.Z 8 % . & q.Y < - Y 5.D 6.U a W :XV.iXC.C.:Xg.T C.v.W u.MXxXzXJ.R.UXpX( ;.aXiXpXPXNXNXBXxXcX",
"(.,X(.(.i.l.z.(.+X#X#X$X5X0XDXDXT._.qX<X$X,XwX3Xj.0.oX+XoXj.j.|.%X#X9X%X>XGXGXDX7X7X9XP.T.8X&X+X.X.X;XIXW.B.X.~.-X^.zXzX4X9X4Xx.",
"&.O.J U.= l A j +.h.f.h.T.@XLXHXv Q T mX!.eXuXxX*Xk.m.o.P.>X5Xq.H.J.E.$XzXrX^.kX:XMXrX;.dXhXhX' I P 4XIX.XfXtXH.cX*X:XxXcXgX^.>X",
"u + u Z.# 8 + O V , # # < 4.%XmXb n T &X@.U h v Q q.S L S P k.G P ; > 6X'.W W v.W.>XT R =.=.>.Z & & 4.GX+XO.tXQ aXfX^.eX^.O.o.M.",
"t.0.d.+X$X#X).d.].).l.z.$X7X,XoX0.).<X,X$XwX+XoX%X%XoX5XwXqXwXwXqX3XwXLXwXqX_.;X<X9XDX;X@Xc.W.A.M..XT.8XqX;X*X.X~.1XmX8X8XOX Xc.",
"{ * v g h +.D.t x N v a.B...v.h.c.G.$.] A x M.B j k.b.A.eXrXGXV.b J.V N V c $.[ +.&XqX~.4Xg.rX%.Q xXBXcXeXhXaX4XJ.V.yXkXY.3Xg.>X",
"9.) ' > * H a.J J | { +X{ m.x.7.OXb.T 0.' X.Y.8.e.q.e.A.A.q.A.S I &Xo.* j U K q.H |..Xr.;Xy.R A E M.g./.E  .&.l.P.B.XX&XC  Xf.R.",
")._.$X,X#XU.(.j.Y.1X0X,XoX+X$X,X`.h.)._.x.@XD.Y.#X$X=X_.@X&X4XI.^.I.8XvXx.9.4.9.9.9X;XT.R.vXAXG.uX^.W &X2XNXgX}.*X=XAX8X>Xm.-X:X",
"t t 8 9 S.8 o o 5 U > = ` ; + e.M s 7 4 I [ 2 2 S P 8 d q d u.f f 6 6 Q ;   + X X u.u j O b V.R ^ ( -.;.rX:.,.<.-.!.PXPXGXxXkX/.",
": : A ; p.N # # j b.0., f.h.0.x.J Z % N z.;XP.6.+Xx.[ +..Xp.8.F e.P.u.R.z.G C F q.x.a.a.U.Y.).{.yX!.J.^._.v.D.gX^.I.GXMX8XE.P..X",
"p.(.' ' {  .&.z.} ).d.r.U.r.r.A.+XT.` i.u.P k.w.> ] q.f.(.a.Y.[ Y.<Xt.n.rX%.A.N.N.H.S.H.{.xXH.}.BX*X.X3XlXNXNXbXfXV.yXkX-X^.L P.",
"9 D g 6 0 5 v n.x V j v D.p 2 2 A.%.N ` s 9 : i + 3 2 # u 6 i 6 4 [ X t b w T V a n 0 i e.Z v r yXl k ;.:.dXjX>.eXaXtXcX^.yXE & ",
"A ` F j C Z { a.| ` > * l.z.x.).$X} C i.u.] l.t.8._ I 0.T.A.[ q.[ _ > : S v.A.a.s.=X1X:XwXc.F { I.+XA.*XA.K N.r.m.Y.].fX].F 0.8.",
"Z ' p.F z.* F ' F j.Z.A.].sXxX=XA.+.D T.y.T J.n.D T.8.Z N.s.z.P.M.N.N.m.t.G o.n.G.&XH.n.e.$.#.x./.*XyX^.P.H.'.fXW.^.n.v. .o.P.x.",
"X % k j s.7 + p k ` T @.T M 1.2XT v h X.o.d i s . q.k k 9 4 D J 8 k a k J i Y f d r.V . & i T m.R ~ c i K $.$.tX#.iXw.j N B I Z ",
"' : : : l.d.z.).x.(.e.` a.A.s.,X<XU.r.q.h.` ` 9.f.i.y.k.p.A.).h.h.q.t.#X5X).T.P.m.5X7Xt.9.T._.;XU.H y.T.c.p.e.r.r.x.$Xz.e.q.t.4.",
"D.} x = v T '.l D =.~ G.E v D c B.O.Y v n.N.U.S.gX+.T +.Y.Q.] r.9.+XV.gXK.n.b.r.Y S.#.$.Q.-.#...:.+.N.- 8.X.rX'.aXJ.eXM.y.;.V.Q ",
"Z j h $ 8 n z.* g x c n.C - B U } G D U X.Z._ g D #.T O.V i % g * 0.K N.B.O.~.R.O.!.W N ].*.Z k n { a.1 I.%.o.n.-.>.#.V N b b m ",
"#X`.{ a.z.[ ].`.(.).} P.).&X5Xz.A..X#X$X<X;XT.z._.,X).<X=X9X8X_.<X7XwXLX1X2XMXAXAXLX-XgXBXxXH.' L.{.{.D.].bX'.S.n._.vX[.+.~.N.H ",
"n ^ 0 ' @.8 q 0 v L.e X a e G.k.@.0 k J.r.8 k $.r.5XA.r.L.>.lXQ / m =.;.V.~ h ..=.*XT dXdX<.>.K.<.,...=.jX<.dX<.$.G.sXVXhXVXdX-X",
"% l | | : * z z Z.`.} : A o.`.6XT.X.j ~.e.N ' D.C oXi.H _ Y.8X'.H.L.J.[.;X{.Y.=XlX9X$X`.b.L.J.e.%.%.F.G.&.=.L.>. .D ' K.D H.H.s.",
"D.(.) {  .%.p.] 1XmX#X].(.9XAX8X{.8XA.;XU.e.z.].] Q.A.=X-XbXSXMXMXMXMXvX:X:X,X_.<XPXLXMX8XfXgXyX'.{.gXK.!.rXfXz.j.D.gXNXY.B.W.Q.",
"*.&.+ 9 r 0 ' v e q k W t.T R 0 4 I.* k +.H.Z.$.2 c l H.*.1.m *.M.B.;.=.y =.y.v b :.=.xXbX;.;.;.( fXb M =.=.eXf.2.; iXnXhX:.;.rX",
"` ` | | | | _ +. .J : { j.e.' { [ P.` B e.r.z.].} | p.{ } F.Z.r.#X%XQ.{.n.Q.).+.Q.!.B.*X1X*X=X`.'.].S.E Q %.gX,XOXl.b.I.P.n.N.N ",
"' ) ) d.+.T l ..&.A. .D.e.G.;X+XoX.XW E r.#.%.n.U.;XO.I.[ G A.[.W.~.S._.z.Q } G B.;X&X$.^.!.-XgXlXnXdXsX'.rXrXsXrXlXG.=.m.#.;.r.",
"$ $ + | T 0 q r / X.e m % 5 K.o.S v q U K r x 2 p .Xx Y q + k %.5 f q T } e k + x T.o.R Q U o.%.>.;.*.;.cX=.R ~ ^ yXM.~ Z R ;.S.",
"(.l.(.(.`.U.).).Y.1XQ.p.l.p.`.#X_.U.{ r.`.F.d.e.a.$XP.P.U.A.;XR.^.XX>X;XT.] D.z.0.).=X<XZXvX<X<XAX_.].vX2X{.fX_.{.{._.=X_.gXmX-X",
"D | t + M 0 i.rXb $.#.w.D.: 7.N D Z.e ;.~ l #.> k v i % e.R T i k n.E J.#.f &.PXK.a b j ^.=.hXcX=.L.#.-...=.iX'.&. .X.{ bXtXcXpX",
"+ ` D = A g : n g u 7 Z [ = # = K [ 8 T n u  .- . h g + l.G J q.Z P.N.'.'.Q +.AX{.J G.G p.O.O.@.Q H.T $.' Q K.D.F.p.&.&.=X$.%.eX",
"{ (.].#Xd.} { | } a.D.z.@X#X#X<X5XqX1X;X(.A.).{ D.).z.d.5X+X,XwX;X4X7XMXqX=X`.=XLXLXvX).c.%X7X#X<X8X2XMX9X[.-XbX'.8XbXAXvXSX9XL.",
"q .   l l 4 h d i J a l R V L.!.A.K.tX>.J   q n &.`.Z v ; i T A 6 8 9 Y H.d 7 Y bX8XV.P - - [.#.~ ;.-.hXyXrXgXhX^ #.=.>.=.SXMXm ",
"Z A : ' ` j ; p.p.' N A N ' ].`.r.n.&.X.+Xe.} > 7.(.d.).a.p.T.G D S } ].`.F.z.Y.1X$X=X#XoX(.kX;XgXrX%.'.].-X=X=X-X9X-XZX,X+X).S.",
"} _ | X.%. .F.(.x.> p.l.x.j.x.Y.%Xk._ P #XzXz.'.n.}.!.].'.L.Q.Q.b.@.lXLXSX-XgXqXmXLXNXBXDX3X%X3X|.+X{.fXgXgX'.'.gXmXqXxX3X7.f.E.",
"8 = x i n M =.* k k 8 k ' S B p S L ; O 7 0 g ..w ..m n n r m Q v T %.gXbXfXJ.).J.XXkXiX.X7.2.5.2.t.'.;. .x  . .1.T _ ...X2.> @.",
"` ` 9.z.z.{ { ) t.Y.p.a._.#Xd.{ w.#X+X] _ G D.s.s.{.2X=X_.J { P._.<X;X`.=XAXAX6X8X.Xg.*XLXKXJXwXJXwX7XqX9X=XK.].'.{.@X>X6X3XFX.X",
"i.D.] $Xp.l l A * @.] ..>.[ !.Q.T { =.G.d.$ +.bXO.V } O.].XX!.O.n.o.-XvX=XAXAXF.T.@X^.zXLXzXmXMXPXHXPXhX^.tX>.,.>.uX6.W /.C.~.6.",
"8.Z C Z.p.J g * * | G l z = { _.D A c h > $ j 2X*.w.a.g L n.H.l k j A.M.b.*XS.N L E.H.~.:XI.4X!.zX:X@Xn._.S.&.#.$.-Xw.] I.^.T.E ",
"l.%X,X$X%X7X)._.D.gX{.`.).}.#X&X{.oXD.{.=X`.l.(.9X].;XwX;X_._.U.wX3XFXDX%X%X|.%XDX5X%XwX#X;XmX1X~.].{.{.2X[.vX~.I.DXmXMXMXLXIXDX",
"P ] b.O < 7 V J q r w w } m q 3 0 N w -.<.1.| @.E.i I./.v e c w f >X2.> & < 2.c.E.M.kXmXW.( Q / ~ %.=.-.@.~ rXH S E l J.V.eXxXBX",
"e.s.z.0.) _ p.{ l |  . .d.{ { e.} z.T >.%.(.#X9X4XA.+X[.S.+.&.D.n.%Xh.8.4.9.l.h.k.P.A.-Xu.R.].[.^.Z.}.L.`.[.2XoXP.;X4X,XR.*X8X0X",
"N K +.P.s.o.o. .T D.&.] {.).F.2XMXqXfX~.2X[.gX-XGXmX*X4X&XXX@Xz.M.@X~.^.@X!.*XXXR.&X@XvX[.[.BXyXK.rXrX{.!.gX-XkXS.2XNXbX*XMX3Xv.",
"u D 9 9 } 4 4 5 5 T T + v j S { v O d h &.% + u N.A.W J.x 5 K C 9 a p f u.v.h k ! &XN.$.v.O.vX..n ..e L.B...$.L.v.{.aXL.H.sX&X! ",
"=X`.z.p.z.&.p.D.&.p.` A { z.%Xa.0.z.' e.h.l.0.7.T.+Xz.x.z.=X@X9X7XwXi.<X,X$X+X,X=XwX;X;X).9XIXLX2XY.1X8XZXAXLXMX8XZXAXLXJX8XDXMX",
"n &.+.l V D D %.n  .=. ._.[.H... .F.Q ;.} T >.].V.v.J.W.4XH.=.#.:.*XA.;.%.B.{.MXxXkXxXnX*XgXjXhXrXH.dXhXhXtXzXiXhXVXnXNX!.S v.B.",
"l  .A % g 7 g T h h *.l &.} D ..j ..R c g 7 R A.W D Q ~.4XD e 8 e D L v g 8 r.;XK.!.gXiXG.rX;.;.$.vX>.>.:.=.-XfXhXhXsXBXY.N.q.& ",
"d.(.+Xx.(.l.`.Y.d.#X`.U.<X#X<X,X$X+XU.i.d.{ ).Y.@X5Xl..X%XwX,X#X+X,X1X<X=X$X6X2X<X7X8XqX<XmXvXbXbXAXbXmX9XmXPXPXPXIXqXqXLXGXwX` ",
"  . O @ ; % x k l } n T O.H @.9.u a u + k r q M c n.p & $ V u.M.v D q a L.fX4XC.5.XXW Q K x rX<.=.%.y ,.S.=.;.>.nXBX/ h ! ( W.u ",
"i.i.l.(.(.= j A ) i.{ j G > : ,XU.+.} `.D.}  .&.#.&X_.H B 5.a.t.[ +.u.0.].XXt.] E..XE.~.D.K.Q.gX[.&XxX{.5X;X-X-XMXLXAX$X;X{.7Xj.",
"P A.R.x.; = = b.lX8X<X;X#X} b.[.{.(.E +.n.q.s.{.gX_.*XP.z.b.S.D.L.1X[.Z.e.&X-X.XFXFXFXIXqXlXlX&XxXMX4Xf.j.lXLXzXxXR.gXMX*XJ.uXuX",
". * : 7.  O * O.M 7 V T ` 6 4 Y 6 * 6 2 8 6 n c c d 6 j : X h v 0  .q 2 . u P S # 3.4.XX#XtX;.E rX{.T ; j X.@XJ.$.H J.lXA.Y v.Q ",
"i.d.c.OXx.i.a._ t.a.).a.l.i.i._ z._._.`.`.S.S.z.Y.p.r.%X$X+X@Xc.`.ZXMXwX7X@X;X;X).i.z.@X0X8X8X1XBXwX8XGXLXoX7XLXqX0XGXDX4X3XwX3X",
"j V F.w._.; k j a @.S.X.+.E E Z.O.T %.] +XW D P L .XZ K , t.M.: B M.eXeXR.P O.o.&.R.yXn.A.@.R.J.;.^.rXBXmXn.!.fXrX>X5.W Q U I.V."
};
