/* XPM */
static char *_489e92ac8514b0ed671e0981301da3aQMjfrVQE9yoc4SzM[] = {
/* columns rows colors chars-per-pixel */
"32 32 9 1 ",
"  c #294139",
". c #187329",
"X c #415239",
"o c #4A5A41",
"O c #527341",
"+ c #089C39",
"@ c #00C529",
"# c #73DE00",
"$ c #629441",
/* pixels */
" X$$$$OO$OO$OOO$$ X$$$OOOOOOO$X ",
" XX$$OO$OOO$X X$$$$X XO$O$$OOO$X",
"XXXoooooooooX XOOOOX XoooooooooX",
"XXXoooooooooX XooooX XoooooooooX",
" XXoooooooooX XooooX XoooooooooX",
" XXoooooooooX XooooXXXoooooooooX",
" XXoooooooooXXXooooX XoooooooooX",
" XXoooooooooX XXXXXX XoooooooooX",
" XXoooooooooX  XXXXX XoooooooooX",
" XXXoooo             XooooooooXX",
"  XXXXXX X$$$$$$$$$$ XooooooooXX",
" X       Xoooooooooo XXXXXXXXXX ",
"XX X$OOX Xooooooooooo           ",
" X XOOOX XoooooooooooX X$OOOOOX ",
" X XoooX XoooooooooooX XOOOOOOX ",
" X XoooX XoooooooooooXXXooooooX ",
"XX XoooX XoooooooooooX XooooooX ",
" X XoooXXXoooooooooooX XooooooX ",
" X XoooX XoooooooooooX XooooooX ",
"   XXooX XoooooooooooX XooooooX ",
" X XXXXX XoooooooooooXXXooooooX ",
" X XXXXX XXXXXXXXXXXoX XooooooX ",
" X                XXXX XXooooXX ",
" XX$$$OOO$OOOOOO$$ XXX XXXXXXXX ",
" XXoooooooooooooooX XX  XXXXXXX ",
" XXooo..ooooooooooX             ",
" .Xoo.##.oooooooooX X$OOOOOOOO$X",
".#...o.##.oo...oooXXXooooooooooX",
"X.#@@..##.o.###.ooX Xo....ooo..X",
" X.#@@..@#.#@@.oooXXX.###@.o.##.",
"..X.@@@.+@.@+@.o... .##@@@@.@@#.",
"+@.@@+@.+@.++@..+@@. ...#@@++@.X"
};
