/* XPM */
static char *_a68fe7be8d5496ba45765abef91b50a056BD2rtAWRIsrlK[] = {
/* columns rows colors chars-per-pixel */
"64 64 166 2 ",
"   c black",
".  c #020202",
"X  c gray1",
"o  c #040404",
"O  c gray2",
"+  c #060606",
"@  c #070707",
"#  c gray3",
"$  c #090909",
"%  c gray4",
"&  c #0B0B0B",
"*  c #0C0C0C",
"=  c gray5",
"-  c #0E0E0E",
";  c gray6",
":  c #101010",
">  c #111111",
",  c gray7",
"<  c #131313",
"1  c gray8",
"2  c #151515",
"3  c #161616",
"4  c gray9",
"5  c #181818",
"6  c #191919",
"7  c gray10",
"8  c #1B1B1B",
"9  c gray11",
"0  c #1D1D1D",
"q  c #1E1E1E",
"w  c gray12",
"e  c #202020",
"r  c gray13",
"t  c #222222",
"y  c #232323",
"u  c gray14",
"i  c #252525",
"p  c gray15",
"a  c #272727",
"s  c #282828",
"d  c gray16",
"f  c #2A2A2A",
"g  c gray17",
"h  c #2C2C2C",
"j  c #2D2D2D",
"k  c gray18",
"l  c #2F2F2F",
"z  c gray19",
"x  c #313131",
"c  c #323232",
"v  c gray20",
"b  c #343434",
"n  c #353535",
"m  c gray21",
"M  c #373737",
"N  c gray22",
"B  c #393939",
"V  c #3A3A3A",
"C  c gray23",
"Z  c #3C3C3C",
"A  c gray24",
"S  c #3E3E3E",
"D  c #3F3F3F",
"F  c gray25",
"G  c #414141",
"H  c gray26",
"J  c #434343",
"K  c #444444",
"L  c gray27",
"P  c #464646",
"I  c gray28",
"U  c #484848",
"Y  c #494949",
"T  c gray29",
"R  c #4B4B4B",
"E  c #4C4C4C",
"W  c gray30",
"Q  c #4E4E4E",
"!  c gray31",
"~  c #505050",
"^  c #515151",
"/  c gray32",
"(  c #535353",
")  c gray33",
"_  c #555555",
"`  c #565656",
"'  c gray34",
"]  c #585858",
"[  c gray35",
"{  c #5A5A5A",
"}  c #5B5B5B",
"|  c gray36",
" . c #5D5D5D",
".. c gray37",
"X. c #5F5F5F",
"o. c #606060",
"O. c gray38",
"+. c #626262",
"@. c gray39",
"#. c #646464",
"$. c #656565",
"%. c gray40",
"&. c #676767",
"*. c #686868",
"=. c DimGray",
"-. c #6A6A6A",
";. c gray42",
":. c #6C6C6C",
">. c #6D6D6D",
",. c gray43",
"<. c #6F6F6F",
"1. c gray44",
"2. c #717171",
"3. c #727272",
"4. c gray45",
"5. c #747474",
"6. c gray46",
"7. c #767676",
"8. c #777777",
"9. c gray47",
"0. c #797979",
"q. c gray48",
"w. c #7B7B7B",
"e. c #7C7C7C",
"r. c gray49",
"t. c #7E7E7E",
"y. c gray50",
"u. c #808080",
"i. c #818181",
"p. c gray51",
"a. c #838383",
"s. c #848484",
"d. c gray52",
"f. c #868686",
"g. c gray53",
"h. c #888888",
"j. c #898989",
"k. c gray54",
"l. c #8B8B8B",
"z. c gray55",
"x. c #8D8D8D",
"c. c #8E8E8E",
"v. c gray56",
"b. c #909090",
"n. c gray57",
"m. c #929292",
"M. c #939393",
"N. c gray58",
"B. c gray59",
"V. c #979797",
"C. c #989898",
"Z. c gray60",
"A. c #9A9A9A",
"S. c #9D9D9D",
"D. c gray62",
"F. c #9F9F9F",
"G. c #A0A0A0",
"H. c gray63",
"J. c gray64",
"K. c #A5A5A5",
"L. c gray65",
"P. c gray66",
"I. c #ACACAC",
"U. c gray68",
"Y. c gray72",
"T. c gray77",
/* pixels */
"4 z + . % . . . % W : f t 5 U b . . . I G ( W 5 6._ : h b q I ( h f i q : + t 6.( ; 5 t + D D b h h : . + : 4 q : + 4 : ; + . + ",
"h ( b h C D U b U %.h U U h _ [ W I U o._ | p.o.,.6.[ ( b f _ ,.G D I I I G G o.-._ %._ ( I | -.%.W [ -.[ _ ( f C i z b b h t D ",
"G _ W o.%.W o.,.%.6.[ _ _ D -.j.q.%.3.-.-.%.N.d.t.-.[ %.-.o.%.6.6.-.6.6.,.,.o.%.6._ [ [ ( I -.| W [ o.o.[ ( _ %.| U U ( U D z I ",
"b C D _ D : t G 5 G ( i h f b D U b D I U U ( z %.h t b [ -.W _ [ z G W C C D U D ( ; . : t ; f h b 5 % i z q q C b b h i t : % ",
"f z D I C i b D q b G 5 G o.[ I G b C [ o.6.| I o._ _ G U %.| -.( f b G D U _ | W U D 4 ; W G D C C W ( U o.W ; t C C h z C h % ",
"h 5 q b D b D G h z h % 5 f ; + G C C ( ( -.( W U G ( G D G f h G h h i z U D f b I C . h W t t + z ( U b D b 5 q b z i f z f . ",
"[ h b ( U D D U U | 3.t.p.t.o.3.t.3.,.%.o.,.[ o.-._ | ,.6.3._ ( 6.3.%._ o.3._ I z.-.-.U | -.( i o.,.( G [ [ D G G I h z b z h : ",
"b z U U C U o.%.( _ I W W [ U %.D i b t G U I U h G G D G | 3.6.3.,.-.[ ,.,.o.q.o.o.U _ _ o.o.-.3.W W [ _ U ( ( D h 4 f b f z h ",
"t z z h b b z G h b f f q f z . . f i 4 t + C W z + . + t | ,.[ [ -.| [ ,.3.| [ 5 h W _ _ D b ,.D q ( I G b z C i q 4 ; h D t i ",
"5 C G G _ | ( U U z t z f f U G ; 4 . . + . D [ . . : . ; U [ I %.o.%.%.o.-.%.[ o.( %.%.U U W W q b W t t I W 5 % : % % : 4 5 t ",
"D G b b U ( W ( _ o.[ G b ( ,.( ( W U _ _ G -.-.G W %.[ ( o.%.| o.| %.| U [ %.W U I %.,.| 3.-._ D b I | _ b G G G z i D D i C b ",
"D C G | %.( G U ( [ %.,.| ( _ | %.o.%.,.-.,.z.t.-.-.q.3.-.3.-.-.%.,.6.o.U | -._ G _ %.%.6.,.W | [ U _ -.[ D I | %.G D | W h z z ",
": 4 b | | I C D ; t D W W C z G [ -.,.%._ ,.d.3.o.6.q._ ( -.o.[ %.,.%.| | _ _ %.| [ [ ( [ I i I U b z 5 4 z z W U D [ [ C f q t ",
"4 5 f i q i C C q D [ W W W G I U o.,.,.| -.o.U o.6.6._ ( | _ [ ,.-.[ -.3.( U 6.q.U _ ,.[ ( I I | h t q h ( b _ D I %.U D ( C q ",
"b C G D z I W D D z U [ | C q U D G b I I _ I W U W _ W o.| D I ( G G ( [ I D W [ C W [ I G C h C I D h D [ z f D W I z G [ D q ",
"C h G ( ( | o.U C U %.%.3.-.I _ 6.[ D _ o.o.I %.q.d.p.,.j.z.W i q.,.q.q.6.p.p.%.| 3.,._ [ o._ q.| t.,.6.%.| G I I _ b b G C z f ",
"q q 4 4 f z h z _ -.-.%.t.q._ G [ I o.o.[ [ I -.6.3.%.o.o.%.,.3.3.6.q.o.( 6.t._ t W D q f h C %.: . q f t h z z b : + % ; : : h ",
"b 5 q t % 5 i + I -.q.q.q.3.( z b _ %.( ( %.[ G | ( ( %.6.,.%.o.o.o.3.6.,.,.%.G h b t 4 i h b | I . 5 D 5 q I I C ; + 4 ; . % C ",
"b ; 5 i . + t 4 W | %.| [ %.%._ q D G C b I o.o._ U ( -.%._ _ %.-._ [ -.| _ ( W b b C G b f C _ z + q G C t t b C : ; ; . . . b ",
"D I W | ,.,.%.3.3.[ _ _ W [ -.| -.| | -.q.6.-.-.-.,.3.q.-.| %.6.t.-.o.,.3.q.p.j.-.o.6.6.[ W o.,.%.| [ _ | o._ | ( U [ _ W I C U ",
"W [ ( I [ 6.,.[ 6.( ( %.( b h f W ( | I D ( C C ( _ | | %.,.%.[ q.3.%.[ o.,.6.3.3.| | ( D ( ,.%.o.I I f 4 G _ C I C G G G D f f ",
"b q C U h D | [ 3.[ [ %.U f h G | ( %.G z W D ( ( o.o.| ,.z.j.6.q.3.W f b _ ,.6.o.o.o.( I | 6.-.-.( G q 5 G W G ( C D U W I z D ",
". . z | I b ( | D D C h f q i I -.b h D W I t q [ | | _ | ,.,.| G I f ; f W %.q.W _ | [ I I _ _ _ ( f . 4 b f G t q b U U z 5 q ",
"I ( U b D U I C C [ [ ( [ _ D D %._ W o.| U [ 3.6.o.[ | -.| b : D [ | %.q.3.( U ,.| _ [ ( G G U [ _ [ U U o.( h U U ( G C I I ( ",
"_ | -.6.%.| 3.[ ( ,.[ ,.,.o.W 6.N.p.6.p.p.6.-.-.3.3.,.,.o.3.z.t.q.S.J.z.z.t.3.6.p.o.%.o._ 3.q.G ( o.o.I W _ D D o.G D G z z U U ",
"f W | | _ | ,._ U W z G ( ,.o.[ 3.3.6.q.6.%.I i _ _ ( W G W ,.| b U [ o.,.,.,.d.-._ W I [ o.W o.q . 5 i 5 f z f + . + . . . . ( ",
"h _ [ | o.%.,.o.W I G W _ 6.,._ 3.6.3.-.%.%.( h [ | ( U D G [ W t C | d.z.6.o.,.-.,.-.D _ -.W 6.t % 5 h C h f U U + + . ; q + | ",
"C G h D [ W I U D U | o.[ _ I W U | -.%.%.o._ I I _ W W U W -.%.[ o.,.6.6.%.| %.G _ q.%.[ -.[ U i f z G W z t _ ( q W W f t 5 U ",
"| U q z | [ U I _ 3.t.,.q.,.W %.| %.3.6.,.%.,.p.| q.q.6.3.6.d.z.t.t.q.,.%.3.t.q.| -.-.,.o.[ q.d.o.W ,.p.3.,.,.-.( [ p.z.o.U [ -.",
"_ I t f W _ W z z G D : I | C b o.| [ [ U G ( 3.o.d.p.t.6.%.-.3._ %.6.3.-.3.-.( z 3.o.,.3.U U U ( G U W ( _ C t C U t b ( b D C ",
"[ ( I W W I U C U I W t ( 6.[ ( _ | %.-.| I b f W q.t.p.t.3.3.6.3.,.q.t.3.,.-._ I q.,.[ ( W [ W | o._ G _ U i b b W f _ ,.C C b ",
"U D U [ z ; q q h f [ C G W U W ( [ | [ W G t . b ,.6.6.6.%.| %.3.[ o.3.%.o.o.[ W b _ | D W 6.,.( D ( W z b G ( z t q o.[ h U C ",
"h G I o.G U %.[ I [ %.W [ -._ W | | [ q.,.%.b f | 3.-.%.| 6.o.W ( U U | 6.o.G U %.o.C C ,.%.C G _ ( C I W U W h C I b f f C I z ",
"b W f b U [ W G %.C D I o.| o.q.%.,.-.6.-.3.( D U U U [ [ [ o.6.,.6.-.| %.%.-.6.q.o.| %.,.3.-._ U I h b G D G C f C D b C I D i ",
"z U i 5 h G D D _ % + q D i b _ W _ ( ( U _ W G 5 5 i f b C W | G | %.o.o._ W [ ,.%.o.%.[ | o.( U _ t . % : t z 4 : % . + 5 b U ",
"C D I D t h W G | q h C W I ( _ o.[ _ _ W U U _ C f t : f z U ( _ _ W [ o.( U | %.6.o.U [ | ( o.( _ t . % + : C 5 ; : : . + f o.",
"U D _ [ U W _ W W f W ( U | t.,.W I U ( [ _ o.3.o.I I W %.I W [ o.[ U W [ U W ,.,.3._ G I G C U D D h b I q 4 _ z f z t ; + ; b ",
"I W ( b W ( ( ,.,.( ,.%.C o.j.p.( [ -.%.6.t.d.q.6.q.d.z.j.q.q.t.o.6.t.6.q.,.-.3.%.W o.q.%.3.m.m.%.,.,.-.,.| W -.o.W ( C C G z C ",
"t ( -.f b U | t.t.-.6.%.4 _ p.,.%.%.6.-.q.-.| G | ,.%.( I %.3.3.o.3.3.,.3.,.o.,.3.[ p.S.6.-.d.j.6.3.3._ W ( G W W b [ 3.p.3.b f ",
"; I z._ D %.p.%.%.-.6.%.; %.j.%.o.[ ,.q.N.q.%.W -.,.o.3.,.q.,.-.6.,.o.6.z.t.o.,.( | j.I.J.6.p.U.N.-.,.t.6.[ U 3.,.G 6.Y.T.j.b G ",
"q C U i C | _ [ _ o.I h G [ _ ( D _ -.,.,.,.%._ U o.| -.o.6.-.| | -._ ( I %.[ I b ( z.K.d.,.q.d.( W _ _ | G I U C W _ %.m.-.q I ",
"( 6.j.p.j.d.6.q.t.q.6.t.z.p.6.p.j.j.z.z.z.m.m.z.S.J.z.m.j.N.6.[ d.m.z.z.j.S.z.t.d.p.d.d.q.3.%.( ( -.3.| ( %._ z I [ W f C _ I D ",
": 6.I.d.W h D W U [ _ [ o.| | %.6.6.6.6.3.3.t.z.S.K.S.J.C.S.m.d.t.t.3.q.6.t.6.6.q.t.q.6.-.W W %.,.q.6.-.I ,.-.G I | ,.%.[ ,.,.b ",
"o.N.z.%.D f ( [ I _ | [ [ [ %.3._ [ ,.6.3.-.q.z.S.K.K.J.m.j.d.d.q.,.o.%.o.[ _ | 3.6.6.,.I ; i q.j.3.-.%.W ,.6.U U ( _ o.( _ 3.I ",
"m.6.[ 3.%.U | ,.G C U o.[ I ( ,.W ( | ,.,.-.,.t.z.d.p.q.q.,.o.[ | [ [ %.| W I W q.3.6.d.,.f t %.d.%.%.o.-.d.p.b ( ( D D C I -.o.",
"W I ( -._ G _ -._ _ o.,.| | ,.t.| _ W [ o.%.o.o.-.%.,.-.,.%.,.3._ U _ [ | U ( | _ W _ 3.3.W C W | D U U ( I W z b b z U U z b U ",
"%.[ %.[ _ 6.t.3.-.6.p.6.-.p.m.d.3.q.p.d.d.d.p.6.6.6.d.t.t.-.t.z.q.3.t.6.p.3.d.m.m.3.-.,.%.| -.t.3._ _ -.o.I U [ I C W [ W C h C ",
"U D | [ _ -._ C | o.q.j.q.q.p.3.U 3.N.S.z.d.t.6.3.o.,.-.6.| -.3.3.3.d.q.p.3.t.t.d.| %.q.| G W %.o.o.W [ | %.G i i C _ f % h t . ",
"D t _ | h 3.,.[ o.%.q.z.m.o.,.3.D 6.j.m.o.6.C.C.t.3.o.,.6._ W 3.-.3.p.o.,.3.N.N.m.[ %.t.( z U o.U | %.%.[ U W W b b z t + h q % ",
"U _ _ U I W U %.p.,._ | -.( U C ( | o.-.U _ %.,._ ,.[ D U ,.%.I W ( ( ( | o.,.%.U I U I f b W G G G I U D C D b q f b 5 . 4 t q ",
"U o.%.p.K.p.q.m.z.p.%.3.3.3.,.o.6.-.q.m.p.p.-.o.-.%.,.q.p.p.6.| q.p.t.3.W D I [ q.q.6.,.o.-.3.-.| o.%.( I o.-.I I G W C h I W G ",
"b % t W o.G W G I b 4 b b I _ o.3.[ -.3.6.d.,.| [ W _ _ U [ -.o.%.6.,.%.i q b ,.-.-.| | o.| | o.W C I b q b U z U z I z G G G f ",
"_ % i G D h G z 3.C . t D _ %.q.%.| q.,.,.j.q.o.%.D D U G W ,.p.I I D I h C U 3.,.3.%.[ [ [ ( U ( + q G q . 4 D | G [ ( ( G D f ",
"b 4 f z h f C U o.z + f U [ %.-.W [ q.-.%.3.-.U G ; + h D b I %.C D C I G I I W q.%.o.o.W C b C I % i I i % ; G W h D I G b t 5 ",
"[ %.( ( U W o.-.( [ | %.6.6.p.q.-.,.q.-.o.o.t.-.-.o.W I [ 6.t.p.[ -.q.3.,.-.3.3.%.G ( -.W b G ( W D | ( I U C I G q i D b z i f ",
"I ,.o.d.-.o.-.C W 6.j.,.,.-.t.o.,.3.q.p.p.-.j.q.q.6.6.d.m.3.o.p.,.q.j.,.-.o.6.6.%.| 6.q.( _ -.| _ ( -.[ [ %.I I f q z U i f b | ",
"5 o.t.d.%.W b ( | 3.6.t.,.( _ _ _ 3.q.3._ _ b | 6.-.i U [ W U 6.o.6.p.o.[ _ 3.q.,.( ,.,.W ( ( b z _ _ -.-.I h 5 t f I 4 . . G [ ",
"; [ 6.,._ o.[ -.W %.%._ I G _ W I -.6.,.o.| q ; G | _ [ %.-.( -.,.q.-._ f b _ p.q.| ,.-.[ | _ G C ( U _ _ z i q q q b 5 . + I | ",
"C W I I C D C I [ C q D _ ( G z _ o.| _ | ,.G z D I ( _ %.o.h D [ _ G U D W U _ o.U D C G I h q f I h 4 i C C q . q b t : q C z ",
"_ G C ( ,.3.o.| -.( I | o.U | t.p.p.p.d.z.j.,.%.q.6.6.3.p.d.o.,.3.6.t.-.-.o.3.3.-.o.[ _ -.,.[ %.| 6.o.b b W U C b G ( U G D C h ",
"C z C U -.6.o.z q D I I f 5 I ,.3.-.,.q.t.3.%.( b | _ C I ( -.| -.6.q.[ _ U W C h C f + + : i | b b z f q % % f I h t h f : % q ",
"_ I U W ( U W D h z h b h f W o.t.6.-.[ o.,.q.( _ ,.%.[ o.| q.-.,.6.%.%.[ %.W b : q i q f f q C b q % % 5 5 4 D D C i i i i 4 q ",
"i % q h f 5 C W f i 4 q 4 : D o.6.q.q.%.| ( %.D ( I I G U z b z D G G U h i h U 4 % . . % t i C D t % . ; 5 ; q % q % + + : . . ",
",.o.d.p.q.%.6.%.G %.q.p.p.q.t.3.%.6.j.d.,.( q.-.q.q.C.3.,.,.3.6.,.[ 6.z.z._ W | | %.q.,._ I b C G G _ _ ( D t U _ G i D D f 4 D "
};
